<svg width="558" height="395" viewBox="0 0 558 395" fill="none" xmlns="http://www.w3.org/2000/svg">
<g clip-path="url(#clip0_5_7051)">
<path d="M32.9783 333.076L15.8724 318.6C17.8286 306.995 22.5882 296.043 29.7379 286.694C30.3128 307.608 51.7498 321.615 59.1267 341.193C61.3807 347.317 62.2277 353.869 61.605 360.365C60.9823 366.861 58.9058 373.133 55.5295 378.717L53.8086 394.517C44.4667 389.649 36.2912 382.814 29.8455 374.482C23.3997 366.15 18.8369 356.519 16.4714 346.254C15.2014 340.482 14.6633 334.573 14.8698 328.667C23.6281 331.332 32.9783 333.076 32.9783 333.076Z" fill="#F2F2F2"/>
<path d="M512.483 360.765L524.428 341.806C536.193 342.122 547.703 345.306 557.958 351.08C537.329 354.569 526.453 377.752 508.097 387.791C502.348 390.878 495.978 392.632 489.459 392.922C482.94 393.213 476.439 392.033 470.438 389.469L454.552 389.971C458.068 380.041 463.695 370.991 471.046 363.445C478.396 355.899 487.295 350.036 497.129 346.26C502.667 344.197 508.443 342.839 514.32 342.219C512.904 351.263 512.483 360.765 512.483 360.765Z" fill="#F2F2F2"/>
<path d="M134.37 298.959L68.1359 295.073L77.215 230.87L135.581 293.776L134.37 298.959Z" fill="#F2F2F2"/>
<path d="M125.94 364.459L58.4945 359.919L67.4874 301.558L126.244 359.929L125.94 364.459Z" fill="#F2F2F2"/>
<path d="M502.713 93.6278V34.3236C502.713 29.8162 501.825 25.3529 500.1 21.1885C498.375 17.0242 495.847 13.2404 492.66 10.0532C489.473 6.86591 485.689 4.33765 481.525 2.61273C477.36 0.887808 472.897 0 468.389 0H342.746C338.238 -8.51638e-07 333.775 0.887808 329.61 2.61273C325.446 4.33765 321.662 6.86591 318.475 10.0532C315.288 13.2404 312.76 17.0242 311.035 21.1885C309.31 25.3529 308.422 29.8162 308.422 34.3236V359.671C308.422 368.774 312.038 377.504 318.475 383.941C324.912 390.378 333.642 393.994 342.745 393.994H468.389C477.493 393.994 486.223 390.378 492.66 383.941C499.097 377.504 502.713 368.774 502.713 359.671V135.841C503.287 135.841 503.838 135.613 504.244 135.207C504.65 134.801 504.878 134.251 504.878 133.677V95.7926C504.878 95.2184 504.65 94.6678 504.244 94.2619C503.838 93.8559 503.287 93.6278 502.713 93.6278Z" fill="#3F3D56"/>
<path d="M495.408 34.5592V359.437C495.409 366.185 492.747 372.661 488.001 377.457C483.254 382.254 476.807 384.984 470.059 385.055C469.966 385.064 469.872 385.068 469.779 385.066H343.523C336.726 385.066 330.207 382.365 325.401 377.559C320.594 372.752 317.894 366.234 317.893 359.436V34.5592C317.894 27.762 320.594 21.2433 325.401 16.4369C330.207 11.6306 336.726 8.93008 343.523 8.92945H358.845C358.092 10.7792 357.805 12.7856 358.009 14.7723C358.213 16.759 358.903 18.6651 360.017 20.3227C361.131 21.9804 362.635 23.3388 364.397 24.2786C366.16 25.2184 368.126 25.7106 370.123 25.7121H442.104C444.099 25.7066 446.063 25.2115 447.822 24.2704C449.582 23.3292 451.083 21.9707 452.195 20.314C453.308 18.6572 453.996 16.7529 454.201 14.768C454.406 12.7831 454.12 10.7783 453.37 8.92944H469.779C476.576 8.93006 483.095 11.6305 487.901 16.4369C492.707 21.2433 495.408 27.762 495.408 34.5592Z" fill="white"/>
<path d="M467.611 377.136C467.611 380.501 467.505 383.839 467.293 387.149C467.201 387.16 467.108 387.164 467.015 387.162H340.762C335.05 387.161 329.501 385.253 324.997 381.74C320.493 378.228 317.29 373.311 315.898 367.771C315.654 366.804 315.47 365.823 315.347 364.833C315.204 363.739 315.132 362.636 315.133 361.532V216.752C324.848 217.232 334.498 218.596 343.966 220.825C344.893 221.039 345.814 221.266 346.729 221.499C346.787 221.512 346.845 221.532 346.904 221.545C347.831 221.778 348.752 222.024 349.666 222.277C369.184 227.638 387.505 236.659 403.655 248.86C404.582 249.554 405.503 250.267 406.418 250.987L406.593 251.123C408.123 252.329 409.63 253.566 411.113 254.833C411.444 255.112 411.774 255.397 412.099 255.689C412.896 256.376 413.694 257.077 414.472 257.783C431.694 273.285 445.365 292.322 454.55 313.594C454.855 314.288 455.147 314.989 455.439 315.689C455.555 315.974 455.672 316.26 455.789 316.545C455.899 316.804 456.003 317.064 456.107 317.323C463.731 336.342 467.636 356.646 467.611 377.136Z" fill="#3F3D56"/>
<path d="M309.116 126.805C308.341 126.804 307.599 126.496 307.051 125.948C306.503 125.4 306.195 124.658 306.194 123.883V104.015C306.194 103.24 306.502 102.497 307.05 101.949C307.598 101.401 308.341 101.093 309.116 101.093C309.891 101.093 310.634 101.401 311.182 101.949C311.73 102.497 312.038 103.24 312.038 104.015V123.883C312.037 124.658 311.729 125.4 311.181 125.948C310.633 126.496 309.891 126.804 309.116 126.805Z" fill="#3F3D56"/>
<path d="M308.532 88.2375C307.757 88.2366 307.015 87.9284 306.467 87.3807C305.919 86.8329 305.611 86.0903 305.61 85.3157V65.4477C305.61 64.6728 305.918 63.9296 306.466 63.3817C307.014 62.8337 307.757 62.5259 308.532 62.5259C309.307 62.5259 310.05 62.8337 310.598 63.3817C311.146 63.9296 311.454 64.6728 311.454 65.4477V85.3157C311.453 86.0903 311.145 86.8329 310.597 87.3807C310.049 87.9284 309.307 88.2366 308.532 88.2375Z" fill="#3F3D56"/>
<path d="M386.251 12.2714C386.252 11.4968 386.56 10.7542 387.108 10.2064C387.655 9.65871 388.398 9.35058 389.173 9.34967H409.041C409.425 9.3491 409.805 9.42425 410.16 9.57083C410.515 9.7174 410.838 9.93253 411.11 10.2039C411.381 10.4753 411.597 10.7976 411.744 11.1523C411.891 11.5071 411.967 11.8874 411.967 12.2715C411.967 12.6555 411.891 13.0358 411.744 13.3906C411.597 13.7453 411.381 14.0676 411.11 14.339C410.838 14.6104 410.515 14.8255 410.16 14.9721C409.805 15.1186 409.425 15.1938 409.041 15.1932H389.173C388.398 15.1923 387.655 14.8842 387.108 14.3364C386.56 13.7887 386.252 13.0461 386.251 12.2714Z" fill="white"/>
<path d="M309.116 160.697C308.341 160.696 307.599 160.388 307.051 159.84C306.503 159.293 306.195 158.55 306.194 157.776V137.907C306.194 137.133 306.502 136.389 307.05 135.841C307.598 135.294 308.341 134.986 309.116 134.986C309.891 134.986 310.634 135.294 311.182 135.841C311.73 136.389 312.038 137.133 312.038 137.907V157.776C312.037 158.55 311.729 159.293 311.181 159.84C310.633 160.388 309.891 160.696 309.116 160.697Z" fill="#3F3D56"/>
<path d="M420.143 15.1932C421.757 15.1932 423.065 13.8851 423.065 12.2714C423.065 10.6578 421.757 9.34967 420.143 9.34967C418.53 9.34967 417.222 10.6578 417.222 12.2714C417.222 13.8851 418.53 15.1932 420.143 15.1932Z" fill="white"/>
<path opacity="0.2" d="M409.355 362.739C409.355 356.672 410.549 350.665 412.87 345.06C415.191 339.455 418.594 334.363 422.883 330.073C427.173 325.784 432.266 322.381 437.87 320.06C443.475 317.739 449.482 316.544 455.549 316.545H455.789C455.672 316.26 455.555 315.974 455.439 315.689C455.147 314.989 454.855 314.288 454.55 313.594H409.355V255.689H412.099C411.774 255.397 411.444 255.112 411.113 254.833C409.628 253.568 408.121 252.332 406.593 251.123L406.418 250.987V252.738H349.666V222.277C348.752 222.025 347.831 221.778 346.904 221.545C346.845 221.532 346.787 221.512 346.729 221.499V252.738H317.896V255.689H346.729V313.594H317.896V316.545H346.729V362.739H318.11C318.233 363.728 318.417 364.709 318.661 365.676H346.729V385.067H349.666V365.676H406.418V385.067H409.355V365.676H458.869V362.739H409.355ZM406.418 362.739H349.666V316.545H406.418V362.739ZM406.418 313.594H349.666V312.44C349.666 297.389 355.646 282.954 366.289 272.311C376.931 261.668 391.366 255.689 406.418 255.689V313.594Z" fill="black"/>
<path d="M154.769 150.967L123.271 393.264L123.07 394.808H121.76L121.961 393.264L153.485 150.798L154.769 150.967Z" fill="#E5E5E5"/>
<path d="M89.1918 151.272L54.4575 393.29L54.237 394.833H52.927L53.1475 393.29L87.9077 151.09L89.1918 151.272Z" fill="#E5E5E5"/>
<path d="M203.745 394.775L202.396 394.782L201.981 393.238L134.789 143.658L136.04 143.321L203.323 393.238L203.745 394.775Z" fill="#3F3D56"/>
<path d="M200.899 143.312L199.652 143.665L270.46 393.44L271.707 393.087L200.899 143.312Z" fill="#3F3D56"/>
<path d="M258.192 347.615L193.984 360.898L194.247 362.168L258.454 348.885L258.192 347.615Z" fill="#3F3D56"/>
<path d="M247.059 308.652L182.853 321.936L183.115 323.206L247.322 309.923L247.059 308.652Z" fill="#3F3D56"/>
<path d="M235.936 269.688L172.176 282.028L172.423 283.301L236.182 270.961L235.936 269.688Z" fill="#3F3D56"/>
<path d="M224.802 230.734L162.432 243.059L162.683 244.331L225.054 232.006L224.802 230.734Z" fill="#3F3D56"/>
<path d="M88.0954 151.227C87.12 144.856 88.7158 138.357 92.5315 133.162C96.3472 127.967 102.07 124.501 108.442 123.526C114.814 122.55 121.312 124.146 126.507 127.962C131.702 131.777 135.168 137.501 136.144 143.872L134.862 144.068C134.406 141.081 133.366 138.212 131.801 135.626C130.236 133.041 128.177 130.789 125.742 128.999C123.307 127.209 120.542 125.917 117.607 125.196C114.672 124.474 111.624 124.339 108.637 124.796C105.649 125.253 102.781 126.295 100.196 127.861C97.611 129.427 95.36 131.487 93.5715 133.923C91.783 136.359 90.492 139.124 89.7723 142.06C89.0527 144.995 88.9184 148.043 89.3772 151.031L88.0954 151.227Z" fill="#3F3D56"/>
<path d="M153.051 151.517C152.526 148.368 152.626 145.147 153.346 142.037C154.065 138.927 155.391 135.989 157.246 133.391C159.102 130.794 161.451 128.587 164.159 126.897C166.868 125.207 169.883 124.068 173.032 123.543C176.18 123.019 179.402 123.12 182.512 123.841C185.622 124.562 188.559 125.888 191.156 127.745C193.753 129.601 195.959 131.951 197.648 134.66C199.337 137.369 200.475 140.384 200.999 143.533L199.719 143.746C198.714 137.729 195.361 132.358 190.397 128.813C185.433 125.268 179.264 123.84 173.247 124.842C167.23 125.844 161.858 129.194 158.31 134.157C154.763 139.119 153.331 145.287 154.33 151.304L153.051 151.517Z" fill="#3F3D56"/>
<path d="M220.065 204.443L207.602 234.765L248.211 234.47L244.081 204.376L220.065 204.443Z" fill="#FFB6B6"/>
<path d="M229.982 343.636L236.005 344.515L242.259 321.7L233.37 320.404L229.982 343.636Z" fill="#FFB6B6"/>
<path d="M228.921 340.447L238.526 341.268L237.931 345.347L246.071 352.92C246.473 353.294 246.745 353.786 246.848 354.326C246.95 354.865 246.877 355.424 246.64 355.919C246.402 356.414 246.013 356.82 245.528 357.078C245.043 357.337 244.489 357.433 243.946 357.354L232.61 355.7L231.244 351.38L229.893 355.304L225.619 354.68L228.921 340.447Z" fill="#2F2E41"/>
<path d="M160.372 326.786L165.177 330.523L181.876 313.766L174.784 308.251L160.372 326.786Z" fill="#FFB6B6"/>
<path d="M161.024 323.489L168.972 328.942L166.441 332.197L169.784 342.8C169.95 343.324 169.943 343.887 169.766 344.407C169.588 344.926 169.25 345.376 168.799 345.689C168.348 346.003 167.809 346.164 167.26 346.149C166.711 346.135 166.181 345.945 165.748 345.608L156.704 338.575L157.649 334.144L154.537 336.89L151.127 334.238L161.024 323.489Z" fill="#2F2E41"/>
<path d="M209.895 227.57L205.895 232.868L195.25 279.184L171.053 311.864L179.187 319.674L210.049 289.733L225.195 257.742L232.858 287.291L230.912 326.85L243.883 326.201C247.398 280.293 252.897 233.057 246.42 219.791C242.151 223.515 237.166 226.329 231.772 228.061C226.378 229.793 220.688 230.406 215.049 229.863L209.895 227.57Z" fill="#2F2E41"/>
<path d="M231.303 155.41L241.535 166.599C243.781 169.054 245.204 172.149 245.607 175.453C245.79 176.953 245.76 178.471 245.517 179.962L243.311 196.123L247.202 220.766C247.202 220.766 241.656 224.149 230.989 231.143C226.635 233.997 206.321 233.951 206.346 233.088C206.461 229.092 210.035 218.322 210.885 205.202C211.934 189.008 210.559 169.68 214.128 160.455C218.485 149.193 231.303 155.41 231.303 155.41Z" fill="#278CEA"/>
<path d="M196.189 227.11C196.635 226.46 196.934 225.721 197.063 224.944C197.193 224.166 197.151 223.37 196.94 222.611C196.728 221.851 196.353 221.148 195.841 220.549C195.328 219.95 194.69 219.472 193.973 219.146L194.373 206.833L186.95 204.765L186.629 222.161C186.162 223.403 186.167 224.773 186.643 226.012C187.119 227.251 188.032 228.272 189.211 228.882C190.389 229.492 191.75 229.648 193.036 229.322C194.322 228.995 195.444 228.208 196.189 227.11V227.11Z" fill="#FFB6B6"/>
<path d="M186.287 177.406C186.506 176.832 186.842 176.31 187.273 175.873C187.705 175.436 188.222 175.093 188.793 174.866C192.743 173.207 209.824 159.249 210.454 159.511L215.876 156.835C216.076 156.837 221.418 156.963 224.038 159.935C224.583 160.562 224.986 161.3 225.218 162.097C225.451 162.895 225.508 163.733 225.386 164.555C224.619 171.632 200.405 187.527 197.838 187.42L195.12 207.512L196.178 215.188L186.275 215.469L183.224 204.167C182.786 203.343 182.233 187.731 186.287 177.406Z" fill="#278CEA"/>
<path d="M225.987 166.674C226.789 161.18 223.703 156.182 219.096 155.51C214.489 154.838 210.104 158.746 209.303 164.24C208.501 169.733 211.587 174.731 216.194 175.403C220.801 176.076 225.186 172.167 225.987 166.674Z" fill="#278CEA"/>
<path d="M151.552 202.591L151.301 201.318L211.534 187.692V188.989L151.552 202.591Z" fill="#3F3D56"/>
<path d="M418.201 110.941H395.1C390.117 110.941 386.078 114.981 386.078 119.964V119.964C386.078 124.947 390.117 128.986 395.1 128.986H418.201C423.184 128.986 427.224 124.947 427.224 119.964C427.224 114.981 423.184 110.941 418.201 110.941Z" fill="#E6E6E6"/>
<path d="M461.059 147.032H352.242C347.259 147.032 343.219 151.072 343.219 156.055V156.055C343.219 161.038 347.259 165.078 352.242 165.078H461.059C466.043 165.078 470.082 161.038 470.082 156.055C470.082 151.072 466.043 147.032 461.059 147.032Z" fill="#E6E6E6"/>
<path d="M414.367 174.044H305.549C300.566 174.044 296.527 178.083 296.527 183.067V183.067C296.527 188.05 300.566 192.089 305.549 192.089H414.367C419.35 192.089 423.389 188.05 423.389 183.067C423.389 178.083 419.35 174.044 414.367 174.044Z" fill="#278CEA"/>
<path d="M557.805 393.867C557.805 393.969 557.785 394.069 557.746 394.163C557.708 394.257 557.651 394.342 557.579 394.414C557.508 394.485 557.422 394.542 557.328 394.581C557.235 394.619 557.134 394.639 557.033 394.639L172.666 394.775L171.317 394.782L91.9914 394.808H90.6814L23.1584 394.833H21.8484L0.771731 394.84C0.567055 394.84 0.37076 394.759 0.226033 394.614C0.0813059 394.469 0 394.273 0 394.068C0 393.864 0.0813059 393.667 0.226033 393.523C0.37076 393.378 0.567055 393.296 0.771731 393.296L22.0689 393.29H23.3789L90.8825 393.264H92.1925L170.902 393.238H172.245L239.314 393.212H240.196L557.033 393.095C557.134 393.095 557.235 393.115 557.329 393.154C557.422 393.192 557.508 393.249 557.579 393.321C557.651 393.393 557.708 393.478 557.746 393.572C557.785 393.665 557.805 393.766 557.805 393.867Z" fill="#CACACA"/>
<path d="M242.131 144.236C240.195 146.808 237.44 148.644 234.322 149.441C231.203 150.238 227.906 149.95 224.973 148.623C222.04 147.296 219.647 145.01 218.187 142.141C216.727 139.273 216.288 135.992 216.941 132.84C217.595 129.688 219.302 126.853 221.782 124.801C224.262 122.749 227.367 121.603 230.586 121.551C233.804 121.5 236.945 122.546 239.489 124.518C242.034 126.489 243.831 129.268 244.585 132.398C244.626 132.568 244.66 132.736 244.693 132.912C245.092 134.873 245.069 136.897 244.627 138.849C244.186 140.801 243.335 142.637 242.131 144.236Z" fill="#FFB6B6"/>
<path d="M245.816 133.076C245.459 131.3 245.594 132.217 245.23 130.447C245.305 131.304 245.118 132.164 244.693 132.912L228.002 130.477L229.418 120.774C234.59 119.549 239.612 118.598 241.976 122.606C244.549 122.981 246.868 124.364 248.422 126.449C249.977 128.534 250.639 131.151 250.264 133.724L245.816 133.076Z" fill="#2F2E41"/>
<path d="M235.965 159.184C235.979 159.002 235.987 158.813 235.987 158.63C235.955 157.279 235.78 155.935 235.464 154.621C235.18 153.197 234.891 151.766 234.601 150.34C234.871 152.89 234.3 155.458 232.977 157.653C230.48 155.048 232.131 151.276 228.448 150.739C219.592 149.447 212.386 139.95 213.678 131.087C214.97 122.232 219.735 116.163 228.591 117.455C237.453 118.748 244.049 123.852 242.93 132.733C231.647 133.709 238.156 158.586 235.965 159.184Z" fill="#2F2E41"/>
<path d="M216.481 125.539C219.748 125.539 222.396 122.891 222.396 119.624C222.396 116.357 219.748 113.709 216.481 113.709C213.214 113.709 210.566 116.357 210.566 119.624C210.566 122.891 213.214 125.539 216.481 125.539Z" fill="#2F2E41"/>
<path d="M223.497 114.74C222.945 113.546 222.108 112.507 221.059 111.715C220.01 110.922 218.781 110.4 217.482 110.196C218.397 110.609 219.196 111.242 219.809 112.037C220.422 112.833 220.83 113.767 220.997 114.757C221.164 115.747 221.085 116.763 220.767 117.716C220.449 118.668 219.901 119.528 219.172 120.219L220.368 119.191C220.694 119.469 221.1 119.635 221.528 119.665C221.955 119.696 222.381 119.589 222.743 119.361C223.098 119.121 223.394 118.805 223.609 118.435C223.824 118.065 223.953 117.651 223.985 117.224C224.042 116.368 223.874 115.511 223.497 114.74Z" fill="#2F2E41"/>
<path d="M298.792 177.302C298.089 176.945 297.317 176.748 296.529 176.723C295.741 176.697 294.957 176.845 294.233 177.156C293.509 177.466 292.861 177.932 292.336 178.519C291.811 179.107 291.421 179.803 291.194 180.557L278.938 181.799L277.876 189.431L295.159 187.435C296.452 187.732 297.81 187.545 298.974 186.909C300.138 186.272 301.029 185.231 301.477 183.982C301.924 182.733 301.898 181.363 301.404 180.132C300.909 178.9 299.98 177.893 298.792 177.302Z" fill="#FFB6B6"/>
<path d="M250.848 193.728C250.25 193.587 249.688 193.323 249.197 192.954C248.707 192.585 248.298 192.118 247.997 191.582C245.827 187.888 229.72 172.816 229.896 172.157L226.522 167.139C226.498 166.94 225.913 161.629 228.509 158.637C229.058 158.013 229.736 157.516 230.495 157.179C231.255 156.843 232.078 156.675 232.909 156.686C240.025 156.505 257.914 179.026 258.15 181.583L279.511 180.968L286.978 178.898L288.574 188.676L277.779 193.204C277.02 193.747 261.62 196.373 250.848 193.728Z" fill="#278CEA"/>
</g>
<defs>
<clipPath id="clip0_5_7051">
<rect width="557.958" height="394.84" fill="white"/>
</clipPath>
</defs>
</svg>
