<svg width="283" height="3" viewBox="0 0 283 3" fill="none" xmlns="http://www.w3.org/2000/svg">
<circle cx="6.5" cy="1.5" r="1.5" fill="#DBDBDB"/>
<circle cx="13.5" cy="1.5" r="1.5" fill="#DBDBDB"/>
<circle cx="20.5" cy="1.5" r="1.5" fill="#DBDBDB"/>
<circle cx="27.5" cy="1.5" r="1.5" fill="#DBDBDB"/>
<circle cx="34.5" cy="1.5" r="1.5" fill="#DBDBDB"/>
<circle cx="41.5" cy="1.5" r="1.5" fill="#DBDBDB"/>
<circle cx="48.5" cy="1.5" r="1.5" fill="#DBDBDB"/>
<circle cx="55.5" cy="1.5" r="1.5" fill="#DBDBDB"/>
<circle cx="62.5" cy="1.5" r="1.5" fill="#DBDBDB"/>
<circle cx="69.5" cy="1.5" r="1.5" fill="#DBDBDB"/>
<circle cx="76.5" cy="1.5" r="1.5" fill="#DBDBDB"/>
<circle cx="83.5" cy="1.5" r="1.5" fill="#DBDBDB"/>
<circle cx="90.5" cy="1.5" r="1.5" fill="#DBDBDB"/>
<circle cx="97.5" cy="1.5" r="1.5" fill="#DBDBDB"/>
<circle cx="104.5" cy="1.5" r="1.5" fill="#DBDBDB"/>
<circle cx="111.5" cy="1.5" r="1.5" fill="#DBDBDB"/>
<circle cx="118.5" cy="1.5" r="1.5" fill="#DBDBDB"/>
<circle cx="125.5" cy="1.5" r="1.5" fill="#DBDBDB"/>
<circle cx="132.5" cy="1.5" r="1.5" fill="#DBDBDB"/>
<circle cx="139.5" cy="1.5" r="1.5" fill="#DBDBDB"/>
<circle cx="146.5" cy="1.5" r="1.5" fill="#DBDBDB"/>
<circle cx="153.5" cy="1.5" r="1.5" fill="#DBDBDB"/>
<circle cx="160.5" cy="1.5" r="1.5" fill="#DBDBDB"/>
<circle cx="167.5" cy="1.5" r="1.5" fill="#DBDBDB"/>
<circle cx="174.5" cy="1.5" r="1.5" fill="#DBDBDB"/>
<circle cx="181.5" cy="1.5" r="1.5" fill="#DBDBDB"/>
<circle cx="188.5" cy="1.5" r="1.5" fill="#DBDBDB"/>
<circle cx="195.5" cy="1.5" r="1.5" fill="#DBDBDB"/>
<circle cx="202.5" cy="1.5" r="1.5" fill="#DBDBDB"/>
<circle cx="209.5" cy="1.5" r="1.5" fill="#DBDBDB"/>
<circle cx="216.5" cy="1.5" r="1.5" fill="#DBDBDB"/>
<circle cx="223.5" cy="1.5" r="1.5" fill="#DBDBDB"/>
<circle cx="230.5" cy="1.5" r="1.5" fill="#DBDBDB"/>
<circle cx="237.5" cy="1.5" r="1.5" fill="#DBDBDB"/>
<circle cx="244.5" cy="1.5" r="1.5" fill="#DBDBDB"/>
<circle cx="251.5" cy="1.5" r="1.5" fill="#DBDBDB"/>
<circle cx="258.5" cy="1.5" r="1.5" fill="#DBDBDB"/>
<circle cx="265.5" cy="1.5" r="1.5" fill="#DBDBDB"/>
<circle cx="272.5" cy="1.5" r="1.5" fill="#DBDBDB"/>
<circle cx="1.5" cy="1.5" r="1.5" fill="#DBDBDB"/>
<circle cx="281.5" cy="1.5" r="1.5" fill="#DBDBDB"/>
</svg>
