<svg width="567" height="335" viewBox="0 0 567 335" fill="none" xmlns="http://www.w3.org/2000/svg">
<g clip-path="url(#clip0_5_7026)">
<path d="M387.972 332.943C388.006 332.792 391.312 317.702 384.56 305.168C377.808 292.635 363.394 287.108 363.249 287.053L362.591 286.806L362.435 287.493C362.401 287.644 359.094 302.734 365.847 315.268C372.599 327.801 387.012 333.328 387.157 333.382L387.816 333.63L387.972 332.943ZM363.494 288.483C366.381 289.726 377.776 295.166 383.479 305.751C389.182 316.338 387.461 328.857 386.913 331.953C384.027 330.713 372.637 325.281 366.928 314.684C361.225 304.098 362.945 291.581 363.494 288.483Z" fill="#F1F1F1"/>
<path d="M371.007 310.871C383.141 318.178 387.814 332.692 387.814 332.692C387.814 332.692 372.814 335.358 360.68 328.051C348.546 320.745 343.872 306.231 343.872 306.231C343.872 306.231 358.872 303.564 371.007 310.871Z" fill="#F1F1F1"/>
<path d="M403.951 218.502H369.669V201.131H403.951V218.502Z" fill="#FFD465"/>
<path d="M396.786 202.853C396.7 202.145 396.769 201.427 396.99 200.749C397.21 200.07 397.577 199.449 398.063 198.928C398.55 198.407 399.145 197.999 399.806 197.733C400.467 197.467 401.178 197.35 401.89 197.389L406.712 187.341L413.528 188.785L406.518 202.879C406.373 204.071 405.797 205.168 404.898 205.963C403.999 206.758 402.84 207.195 401.641 207.192C400.441 207.189 399.284 206.745 398.39 205.946C397.495 205.146 396.924 204.045 396.786 202.853H396.786Z" fill="#FFB7B7"/>
<path d="M501.482 319.51L495.81 322.416L481.914 301.9L490.286 297.612L501.482 319.51Z" fill="#FFB7B7"/>
<path d="M501.982 316.916L490.811 322.638L490.81 322.638C488.922 323.605 487.496 325.283 486.844 327.303C486.192 329.323 486.369 331.52 487.335 333.409L487.453 333.641L505.743 324.273L501.982 316.916Z" fill="#2F2E41"/>
<path d="M435.97 327.459L429.598 327.459L426.567 302.859H435.971L435.97 327.459Z" fill="#FFB7B7"/>
<path d="M437.595 325.377L425.047 325.376H425.046C422.925 325.376 420.891 326.22 419.392 327.721C417.892 329.222 417.049 331.257 417.049 333.38V333.64L437.595 333.641L437.595 325.377Z" fill="#2F2E41"/>
<path d="M465.775 126.807C465.775 126.807 470.042 123.535 470.042 131.528L470.716 157.939L463.193 182.889L458.814 174.797L460.61 157.265L465.775 126.807Z" fill="#2F2E41"/>
<path d="M420.132 199.047C420.132 199.047 415.184 223.165 421.451 242.958L424.915 319.059L437.614 318.069L442.067 261.612L446.356 233.548L455.262 259.136L484.62 313.282L498.144 302.717C498.144 302.717 483.157 261.786 472.085 253.193L466.532 189.891L420.132 199.047Z" fill="#2F2E41"/>
<path d="M435.185 94.5615C427.188 94.5615 420.705 88.0726 420.705 80.0682C420.705 72.0637 427.188 65.5748 435.185 65.5748C443.183 65.5748 449.666 72.0637 449.666 80.0682C449.666 88.0726 443.183 94.5615 435.185 94.5615Z" fill="#FFB8B8"/>
<path d="M436.21 83.1423C434.474 83.3683 433.165 81.5907 432.558 79.9475C431.95 78.3043 431.487 76.3912 429.978 75.5036C427.916 74.2909 425.278 75.7494 422.92 75.3493C420.258 74.8975 418.526 72.073 418.391 69.3732C418.255 66.6734 419.328 64.0769 420.382 61.5877L420.749 64.6812C420.7 63.6327 420.921 62.5892 421.39 61.6504C421.858 60.7115 422.56 59.9088 423.428 59.3191L422.954 63.8582C423.055 63.232 423.278 62.6318 423.611 62.0922C423.944 61.5526 424.381 61.0842 424.895 60.7138C425.41 60.3434 425.992 60.0784 426.609 59.9339C427.226 59.7894 427.866 59.7683 428.491 59.8718L428.417 62.5764C431.492 62.2104 434.594 61.8438 437.679 62.1227C440.764 62.4015 443.87 63.3783 446.208 65.4116C449.705 68.4531 450.982 73.4612 450.553 78.0783C450.124 82.6954 448.22 87.0328 446.236 91.2228C445.736 92.277 445.046 93.4666 443.888 93.6009C443.363 93.6083 442.85 93.4406 442.431 93.1244C442.012 92.8081 441.709 92.3612 441.572 91.8541C441.323 90.831 441.332 89.762 441.6 88.7437C441.893 87.1874 442.261 85.5967 441.986 84.0373C441.711 82.4778 440.59 80.9368 439.02 80.7456C437.449 80.5545 435.842 82.3514 436.597 83.743L436.21 83.1423Z" fill="#2F2E41"/>
<path d="M419.235 205.496L467.571 202.375L463.934 187.29L419.755 197.173L419.235 205.496Z" fill="#CBCBCB"/>
<path d="M449.045 99.8341L446.013 95.6212C446.013 95.6212 442.624 96.7738 433.549 101.295L432.908 105.242L417.155 202.22L445.788 200.984L453.586 200.818L456.137 195.093L459.284 200.696L466.898 200.534L474.646 196.039L467.011 172.662L464.54 151.308L468.358 131.191C468.358 131.191 473.162 112.717 454.659 102.756L449.045 99.8341Z" fill="#2F2E41"/>
<path d="M409.361 197.693L408.321 201.335L401.045 196.592L403.791 193.446L409.361 197.693Z" fill="#CBCBCB"/>
<path d="M443.628 111.555C443.628 111.555 432.349 97.1426 425.532 113.206L423.382 130.04C423.382 130.04 415.124 150.964 414.875 159.43C414.875 159.43 409.276 170.479 409.328 176.282L401.045 195.051L409.54 200.33L433.052 164.248L443.628 111.555Z" fill="#2F2E41"/>
<path d="M331.858 334.05H565.816C565.979 334.05 566.135 333.985 566.25 333.87C566.365 333.755 566.43 333.599 566.43 333.436C566.43 333.273 566.365 333.116 566.25 333.001C566.135 332.886 565.979 332.821 565.816 332.821H331.858C331.695 332.821 331.539 332.886 331.424 333.001C331.309 333.116 331.244 333.273 331.244 333.436C331.244 333.599 331.309 333.755 331.424 333.87C331.539 333.985 331.695 334.05 331.858 334.05Z" fill="#CBCBCB"/>
<path d="M284.837 145.478H2.33047V2.33261H284.837V145.478Z" fill="white"/>
<path d="M-0.000152588 147.811H287.168V0H-0.000152588V147.811ZM282.507 143.146H4.6608V4.66504H282.507V143.146Z" fill="#E5E5E5"/>
<path d="M58.8821 28.4017H112.108V119.411H58.8821V28.4017Z" fill="#E5E5E5"/>
<path d="M120.927 28.4001H228.286V53.4514H120.927V28.4001Z" fill="#FFD465"/>
<path d="M120.927 60.4277H228.286V87.3816H120.927V60.4277Z" fill="#E5E5E5"/>
<path d="M120.927 94.3579H228.286V119.409H120.927V94.3579Z" fill="#E5E5E5"/>
</g>
<defs>
<clipPath id="clip0_5_7026">
<rect width="566.43" height="334.05" fill="white" transform="matrix(-1 0 0 1 566.43 0)"/>
</clipPath>
</defs>
</svg>
