<svg width="70" height="70" viewBox="0 0 70 70" fill="none" xmlns="http://www.w3.org/2000/svg">
<path d="M66.433 53.316C65.188 52.287 63.55 51.734 61.926 50.873C63.173 44.398 60.7 39.156 55.757 34.76C53.303 32.576 51.086 30.122 48.822 27.733C46.762 25.557 44.784 23.303 42.474 20.757L35.488 28.391C35.906 28.709 36.475 29.046 36.926 29.5C41.522 34.121 46.093 38.77 50.686 43.395C52.389 45.11 53.025 47.147 52.23 49.407C51.444 51.641 49.741 53.227 47.339 53.156C45.611 53.106 43.907 52.23 42.176 51.718L35.702 58.088C40.046 62.581 45.358 63.712 51.431 62.362C52.285 66.239 54.931 68.3 58.236 69.73H62.888C63.212 69.562 63.526 69.367 63.863 69.229C70.625 66.467 72.046 57.96 66.433 53.316Z" fill="black"/>
<path d="M41.4 36.269C41.109 36.68 40.775 37.335 40.278 37.828C35.648 42.42 31.007 47.001 26.335 51.55C24.013 53.811 21.075 53.892 18.684 51.86C16.377 49.898 16.018 46.772 17.815 44.208C18.098 43.805 18.415 43.425 18.56 43.237L11.831 36.444C7.574 40.493 6.321 45.55 7.373 51.378C3.107 52.589 0.956003 55.569 0.0910034 59.651V61.589C1.029 65.676 3.448 68.421 7.456 69.73H11.72C14.377 68.62 16.892 67.255 17.924 64.368C18.443 62.917 19.119 62.578 20.594 62.773C25.353 63.403 29.577 62.007 32.964 58.644C38.137 53.506 43.153 48.209 48.524 42.684L41.4 36.269ZM20.946 27.96L27.483 34.318C30.35 31.429 33.153 28.576 35.99 25.757C38.278 23.484 40.561 21.204 42.929 19.015C44.986 17.114 47.46 16.869 49.69 18.165C51.815 19.4 53.006 21.862 52.367 24.269C52.049 25.466 51.248 26.535 50.694 27.607L57.344 34.276C61.706 30.057 62.975 24.879 61.755 19.012C67.777 16.418 70.286 13.218 69.81 8.80804C69.353 4.57704 66.335 0.906042 62.424 0.467042C60.466 0.247042 58.286 0.566042 56.426 1.24304C53.366 2.35704 51.955 5.11404 51.163 8.14004C50.598 8.09504 50.208 8.10704 49.838 8.02804C45.253 7.05904 40.861 7.89404 37.53 11.017C31.803 16.389 26.513 22.224 20.946 27.96Z" fill="black"/>
<path d="M7.56397 18.799C5.90897 25.66 8.14697 31.062 13.116 35.602C15.497 37.778 17.721 40.129 19.976 42.439C22.22 44.738 24.414 47.085 26.629 49.409L33.547 42.57C33.021 42.016 32.547 41.505 32.058 41.007C27.49 36.358 22.894 31.733 18.358 27.052C16.172 24.796 16.115 21.611 18.088 19.357C20.143 17.01 23.324 16.724 25.899 18.652C26.239 18.907 26.589 19.148 26.532 19.107L33.318 12.302C29.461 8.472 24.632 6.982 19.057 8.002C16.329 1.919 13.603 -0.0810006 8.64497 0.320999C4.87697 0.625999 1.37097 3.388 0.626972 7.108C-0.535028 12.932 2.09597 16.767 7.56397 18.799Z" fill="black"/>
</svg>
