<svg width="16" height="16" viewBox="0 0 16 16" fill="none" xmlns="http://www.w3.org/2000/svg">
<path fill-rule="evenodd" clip-rule="evenodd" d="M9.13179 0.470073C8.98337 0.321079 8.80699 0.202858 8.61277 0.122191C8.41854 0.0415245 8.21031 0 8 0C7.78969 0 7.58146 0.0415245 7.38723 0.122191C7.19301 0.202858 7.01663 0.321079 6.86821 0.470073L0.470073 6.86821C0.321079 7.01663 0.202858 7.19301 0.122191 7.38723C0.0415245 7.58146 0 7.78969 0 8C0 8.21031 0.0415245 8.41854 0.122191 8.61277C0.202858 8.80699 0.321079 8.98337 0.470073 9.13179L6.86821 15.5299C7.01663 15.6789 7.19301 15.7971 7.38723 15.8778C7.58146 15.9585 7.78969 16 8 16C8.21031 16 8.41854 15.9585 8.61277 15.8778C8.80699 15.7971 8.98337 15.6789 9.13179 15.5299L15.5299 9.13179C15.6789 8.98337 15.7971 8.80699 15.8778 8.61277C15.9585 8.41854 16 8.21031 16 8C16 7.78969 15.9585 7.58146 15.8778 7.38723C15.7971 7.19301 15.6789 7.01663 15.5299 6.86821L9.13179 0.470073Z" fill="#2FA725"/>
</svg>
