<svg width="24" height="25" viewBox="0 0 24 25" fill="none" xmlns="http://www.w3.org/2000/svg">
<path d="M13.1726 0V2.43001C18.4536 3.07961 22.1949 7.87948 21.5453 13.1605C20.9919 17.5394 17.5514 21.016 13.1726 21.5332V23.9392C19.7889 23.2775 24.6008 17.407 23.9392 10.7907C23.3978 5.07655 18.8626 0.565398 13.1726 0ZM10.7666 0.0360892C8.42082 0.264654 6.18329 1.16688 4.35477 2.68263L6.07502 4.46303C7.42235 3.38036 9.04636 2.68263 10.7666 2.44204V0.0360892ZM2.65857 4.37882C1.15444 6.20415 0.228808 8.43656 0 10.7907H2.40595C2.63451 9.08245 3.30818 7.45844 4.37882 6.09908L2.65857 4.37882ZM0.0120297 13.1966C0.252625 15.5545 1.17891 17.78 2.6706 19.6085L4.37882 17.8882C3.31651 16.5284 2.63927 14.908 2.41798 13.1966H0.0120297ZM6.07502 19.6566L4.35477 21.3047C6.17701 22.8237 8.40791 23.7696 10.7666 24.0234V21.6174C9.05527 21.3961 7.43486 20.7189 6.07502 19.6566ZM12.5711 5.97878V12.2944L17.9845 15.5063L17.0822 16.986L10.7666 13.1966V5.97878H12.5711Z" fill="black"/>
</svg>
