<svg width="28" height="28" viewBox="0 0 28 28" fill="none" xmlns="http://www.w3.org/2000/svg">
<path d="M14 28C21.732 28 28 21.732 28 14C28 6.26801 21.732 0 14 0C6.26801 0 0 6.26801 0 14C0 21.732 6.26801 28 14 28Z" fill="url(#paint0_radial_73_1513)"/>
<path d="M14 28C21.732 28 28 21.732 28 14C28 6.26801 21.732 0 14 0C6.26801 0 0 6.26801 0 14C0 21.732 6.26801 28 14 28Z" fill="url(#paint1_radial_73_1513)"/>
<path d="M14 28C21.732 28 28 21.732 28 14C28 6.26801 21.732 0 14 0C6.26801 0 0 6.26801 0 14C0 21.732 6.26801 28 14 28Z" fill="url(#paint2_radial_73_1513)"/>
<path d="M14 28C21.732 28 28 21.732 28 14C28 6.26801 21.732 0 14 0C6.26801 0 0 6.26801 0 14C0 21.732 6.26801 28 14 28Z" fill="url(#paint3_radial_73_1513)"/>
<path d="M14 28C21.732 28 28 21.732 28 14C28 6.26801 21.732 0 14 0C6.26801 0 0 6.26801 0 14C0 21.732 6.26801 28 14 28Z" fill="url(#paint4_radial_73_1513)"/>
<path d="M7.5 14C9.433 14 11 12.433 11 10.5C11 8.567 9.433 7 7.5 7C5.567 7 4 8.567 4 10.5C4 12.433 5.567 14 7.5 14Z" fill="url(#paint5_radial_73_1513)"/>
<path d="M7.5 14C9.433 14 11 12.433 11 10.5C11 8.567 9.433 7 7.5 7C5.567 7 4 8.567 4 10.5C4 12.433 5.567 14 7.5 14Z" fill="url(#paint6_radial_73_1513)"/>
<path d="M7.5 14C9.433 14 11 12.433 11 10.5C11 8.567 9.433 7 7.5 7C5.567 7 4 8.567 4 10.5C4 12.433 5.567 14 7.5 14Z" fill="url(#paint7_radial_73_1513)"/>
<g filter="url(#filter0_f_73_1513)">
<path d="M20.5 12C21.8807 12 23 10.8807 23 9.5C23 8.11929 21.8807 7 20.5 7C19.1193 7 18 8.11929 18 9.5C18 10.8807 19.1193 12 20.5 12Z" fill="url(#paint8_radial_73_1513)"/>
<path d="M20.5 12.1C21.936 12.1 23.1 10.9359 23.1 9.49999C23.1 8.06405 21.936 6.89999 20.5 6.89999C19.0641 6.89999 17.9 8.06405 17.9 9.49999C17.9 10.9359 19.0641 12.1 20.5 12.1Z" stroke="url(#paint9_linear_73_1513)" stroke-width="0.2"/>
</g>
<g filter="url(#filter1_f_73_1513)">
<path d="M26.764 19.234C25.877 21.394 24.509 23.197 22.732 24.656C22.184 24.038 22 23.391 22 22.5C22 21.5717 22.3687 20.6815 23.0251 20.0251C23.6815 19.3687 24.5717 19 25.5 19C26.02 19 26.32 19.032 26.764 19.234V19.234Z" stroke="url(#paint10_linear_73_1513)" stroke-width="0.3"/>
</g>
<g filter="url(#filter2_f_73_1513)">
<path d="M7.5 14C9.433 14 11 12.433 11 10.5C11 8.567 9.433 7 7.5 7C5.567 7 4 8.567 4 10.5C4 12.433 5.567 14 7.5 14Z" stroke="url(#paint11_linear_73_1513)" stroke-width="0.2"/>
</g>
<g filter="url(#filter3_f_73_1513)">
<path d="M14 21.906C15.3288 21.906 16.406 20.8288 16.406 19.5C16.406 18.1712 15.3288 17.094 14 17.094C12.6712 17.094 11.594 18.1712 11.594 19.5C11.594 20.8288 12.6712 21.906 14 21.906Z" fill="url(#paint12_radial_73_1513)"/>
<path d="M14 21.906C15.3288 21.906 16.406 20.8288 16.406 19.5C16.406 18.1712 15.3288 17.094 14 17.094C12.6712 17.094 11.594 18.1712 11.594 19.5C11.594 20.8288 12.6712 21.906 14 21.906Z" fill="url(#paint13_radial_73_1513)"/>
<path d="M14 21.981C15.3703 21.981 16.481 20.8702 16.481 19.5C16.481 18.1298 15.3703 17.019 14 17.019C12.6298 17.019 11.519 18.1298 11.519 19.5C11.519 20.8702 12.6298 21.981 14 21.981Z" stroke="url(#paint14_linear_73_1513)" stroke-width="0.15"/>
</g>
<g filter="url(#filter4_f_73_1513)">
<path d="M8.37296 26.636C6.21738 25.6495 4.34635 24.1339 2.93396 22.23C3.57396 21.417 4.49396 20.974 5.60996 20.974C7.54296 20.974 8.93696 22.698 9.02496 24.398C9.02496 25.25 8.87896 26.028 8.37296 26.636Z" stroke="url(#paint15_linear_73_1513)" stroke-width="0.2"/>
</g>
<path d="M8.189 26.74C6.03354 25.7538 4.16252 24.2385 2.75 22.335C3.03765 21.9729 3.39419 21.6714 3.79904 21.4479C4.20388 21.2245 4.649 21.0834 5.10867 21.033C5.56834 20.9825 6.03345 21.0237 6.47713 21.154C6.92081 21.2844 7.33425 21.5014 7.69358 21.7925C8.0529 22.0836 8.35098 22.443 8.5706 22.8499C8.79021 23.2569 8.927 23.7033 8.97307 24.1634C9.01914 24.6236 8.97356 25.0883 8.83898 25.5307C8.7044 25.9731 8.48349 26.3845 8.189 26.741V26.74Z" fill="url(#paint16_linear_73_1513)"/>
<path d="M8.189 26.74C6.03354 25.7538 4.16252 24.2385 2.75 22.335C3.03765 21.9729 3.39419 21.6714 3.79904 21.4479C4.20388 21.2245 4.649 21.0834 5.10867 21.033C5.56834 20.9825 6.03345 21.0237 6.47713 21.154C6.92081 21.2844 7.33425 21.5014 7.69358 21.7925C8.0529 22.0836 8.35098 22.443 8.5706 22.8499C8.79021 23.2569 8.927 23.7033 8.97307 24.1634C9.01914 24.6236 8.97356 25.0883 8.83898 25.5307C8.7044 25.9731 8.48349 26.3845 8.189 26.741V26.74Z" fill="url(#paint17_radial_73_1513)"/>
<path d="M26.955 19.316C26.0728 21.4598 24.6734 23.3517 22.882 24.823C22.3484 24.2227 22.0376 23.4571 22.0016 22.6547C21.9656 21.8524 22.2066 21.062 22.6843 20.4163C23.162 19.7706 23.8472 19.3089 24.625 19.1085C25.4028 18.9082 26.2258 18.9814 26.956 19.316H26.955Z" fill="url(#paint18_linear_73_1513)"/>
<path d="M26.955 19.316C26.0728 21.4598 24.6734 23.3517 22.882 24.823C22.3484 24.2227 22.0376 23.4571 22.0016 22.6547C21.9656 21.8524 22.2066 21.062 22.6843 20.4163C23.162 19.7706 23.8472 19.3089 24.625 19.1085C25.4028 18.9082 26.2258 18.9814 26.956 19.316H26.955Z" fill="url(#paint19_radial_73_1513)"/>
<path d="M26.955 19.316C26.0728 21.4598 24.6734 23.3517 22.882 24.823C22.3484 24.2227 22.0376 23.4571 22.0016 22.6547C21.9656 21.8524 22.2066 21.062 22.6843 20.4163C23.162 19.7706 23.8472 19.3089 24.625 19.1085C25.4028 18.9082 26.2258 18.9814 26.956 19.316H26.955Z" fill="url(#paint20_radial_73_1513)"/>
<g filter="url(#filter5_f_73_1513)">
<path d="M13.099 5C14.0511 5 14.823 4.32843 14.823 3.5C14.823 2.67157 14.0511 2 13.099 2C12.1469 2 11.375 2.67157 11.375 3.5C11.375 4.32843 12.1469 5 13.099 5Z" fill="url(#paint21_radial_73_1513)"/>
<path d="M13.099 5C14.0511 5 14.823 4.32843 14.823 3.5C14.823 2.67157 14.0511 2 13.099 2C12.1469 2 11.375 2.67157 11.375 3.5C11.375 4.32843 12.1469 5 13.099 5Z" fill="url(#paint22_radial_73_1513)"/>
<path d="M13.1 5.07499C14.083 5.07499 14.898 4.37899 14.898 3.49999C14.898 2.61999 14.083 1.92499 13.099 1.92499C12.116 1.92499 11.3 2.62099 11.3 3.49999C11.3 4.37999 12.116 5.07499 13.1 5.07499V5.07499Z" stroke="url(#paint23_linear_73_1513)" stroke-width="0.15"/>
</g>
<defs>
<filter id="filter0_f_73_1513" x="17.5" y="6.49999" width="6.00002" height="5.99999" filterUnits="userSpaceOnUse" color-interpolation-filters="sRGB">
<feFlood flood-opacity="0" result="BackgroundImageFix"/>
<feBlend mode="normal" in="SourceGraphic" in2="BackgroundImageFix" result="shape"/>
<feGaussianBlur stdDeviation="0.15" result="effect1_foregroundBlur_73_1513"/>
</filter>
<filter id="filter1_f_73_1513" x="21.55" y="18.55" width="5.65273" height="6.61357" filterUnits="userSpaceOnUse" color-interpolation-filters="sRGB">
<feFlood flood-opacity="0" result="BackgroundImageFix"/>
<feBlend mode="normal" in="SourceGraphic" in2="BackgroundImageFix" result="shape"/>
<feGaussianBlur stdDeviation="0.15" result="effect1_foregroundBlur_73_1513"/>
</filter>
<filter id="filter2_f_73_1513" x="3.60002" y="6.59999" width="7.79995" height="7.80001" filterUnits="userSpaceOnUse" color-interpolation-filters="sRGB">
<feFlood flood-opacity="0" result="BackgroundImageFix"/>
<feBlend mode="normal" in="SourceGraphic" in2="BackgroundImageFix" result="shape"/>
<feGaussianBlur stdDeviation="0.15" result="effect1_foregroundBlur_73_1513"/>
</filter>
<filter id="filter3_f_73_1513" x="11.2441" y="16.744" width="5.51194" height="5.51201" filterUnits="userSpaceOnUse" color-interpolation-filters="sRGB">
<feFlood flood-opacity="0" result="BackgroundImageFix"/>
<feBlend mode="normal" in="SourceGraphic" in2="BackgroundImageFix" result="shape"/>
<feGaussianBlur stdDeviation="0.1" result="effect1_foregroundBlur_73_1513"/>
</filter>
<filter id="filter4_f_73_1513" x="2.60811" y="20.674" width="6.71702" height="6.28477" filterUnits="userSpaceOnUse" color-interpolation-filters="sRGB">
<feFlood flood-opacity="0" result="BackgroundImageFix"/>
<feBlend mode="normal" in="SourceGraphic" in2="BackgroundImageFix" result="shape"/>
<feGaussianBlur stdDeviation="0.1" result="effect1_foregroundBlur_73_1513"/>
</filter>
<filter id="filter5_f_73_1513" x="11.0251" y="1.64998" width="4.14792" height="3.70002" filterUnits="userSpaceOnUse" color-interpolation-filters="sRGB">
<feFlood flood-opacity="0" result="BackgroundImageFix"/>
<feBlend mode="normal" in="SourceGraphic" in2="BackgroundImageFix" result="shape"/>
<feGaussianBlur stdDeviation="0.1" result="effect1_foregroundBlur_73_1513"/>
</filter>
<radialGradient id="paint0_radial_73_1513" cx="0" cy="0" r="1" gradientUnits="userSpaceOnUse" gradientTransform="translate(21.8745 8.69899) rotate(129.653) scale(18.0213 18.5548)">
<stop stop-color="#FFFAAC"/>
<stop offset="1" stop-color="#FFBD4D"/>
</radialGradient>
<radialGradient id="paint1_radial_73_1513" cx="0" cy="0" r="1" gradientUnits="userSpaceOnUse" gradientTransform="translate(20.0003 9.69869) rotate(126.159) scale(22.6683 31.6261)">
<stop offset="0.46" stop-color="#D97850" stop-opacity="0"/>
<stop offset="0.802" stop-color="#D97850"/>
</radialGradient>
<radialGradient id="paint2_radial_73_1513" cx="0" cy="0" r="1" gradientUnits="userSpaceOnUse" gradientTransform="translate(28.8755 17.8221) rotate(-158.449) scale(29.4954 25.5742)">
<stop offset="0.679" stop-color="#B69262" stop-opacity="0"/>
<stop offset="1" stop-color="#B69262"/>
</radialGradient>
<radialGradient id="paint3_radial_73_1513" cx="0" cy="0" r="1" gradientUnits="userSpaceOnUse" gradientTransform="translate(14 3.198) rotate(90) scale(27.25 20.9516)">
<stop offset="0.821" stop-color="#C3747F" stop-opacity="0"/>
<stop offset="1" stop-color="#C3747F"/>
</radialGradient>
<radialGradient id="paint4_radial_73_1513" cx="0" cy="0" r="1" gradientUnits="userSpaceOnUse" gradientTransform="translate(1.161 7.97) rotate(19.9832) scale(4.91991 16.9803)">
<stop stop-color="#B48C4F"/>
<stop offset="1" stop-color="#B48C4F" stop-opacity="0"/>
</radialGradient>
<radialGradient id="paint5_radial_73_1513" cx="0" cy="0" r="1" gradientUnits="userSpaceOnUse" gradientTransform="translate(5.06284 13.1358) rotate(-47.175) scale(6.98771)">
<stop stop-color="#F6B953"/>
<stop offset="1" stop-color="#D5A04B"/>
</radialGradient>
<radialGradient id="paint6_radial_73_1513" cx="0" cy="0" r="1" gradientUnits="userSpaceOnUse" gradientTransform="translate(8.08 10.5) rotate(180) scale(4.07919 3.91074)">
<stop offset="0.894" stop-color="#FFC553" stop-opacity="0"/>
<stop offset="1" stop-color="#FFC553"/>
</radialGradient>
<radialGradient id="paint7_radial_73_1513" cx="0" cy="0" r="1" gradientUnits="userSpaceOnUse" gradientTransform="translate(4.813 13.136) rotate(-45.3312) scale(7.64572 5.69865)">
<stop offset="0.636" stop-color="#BD8D44" stop-opacity="0"/>
<stop offset="1" stop-color="#BD8D44"/>
</radialGradient>
<radialGradient id="paint8_radial_73_1513" cx="0" cy="0" r="1" gradientUnits="userSpaceOnUse" gradientTransform="translate(18 11.396) rotate(-38.0046) scale(7.13868 2.34917)">
<stop offset="0.2" stop-color="#FFF8B1"/>
<stop offset="1" stop-color="#FFD975"/>
</radialGradient>
<linearGradient id="paint9_linear_73_1513" x1="18.577" y1="6.99999" x2="21.646" y2="12" gradientUnits="userSpaceOnUse">
<stop stop-color="#FFF9AC"/>
<stop offset="0.492" stop-color="#FFF9AC" stop-opacity="0"/>
<stop offset="1" stop-color="#FFF9AC"/>
</linearGradient>
<linearGradient id="paint10_linear_73_1513" x1="25.982" y1="18.656" x2="22.639" y2="24.313" gradientUnits="userSpaceOnUse">
<stop stop-color="#F5BD64"/>
<stop offset="1" stop-color="#FFDC75"/>
</linearGradient>
<linearGradient id="paint11_linear_73_1513" x1="9.325" y1="7.361" x2="4.934" y2="13.057" gradientUnits="userSpaceOnUse">
<stop stop-color="#E4AC50"/>
<stop offset="1" stop-color="#D79C38"/>
</linearGradient>
<radialGradient id="paint12_radial_73_1513" cx="0" cy="0" r="1" gradientUnits="userSpaceOnUse" gradientTransform="translate(14.7935 18.7079) rotate(135) scale(3.78776 4.52374)">
<stop offset="0.252" stop-color="#F29E64"/>
<stop offset="1" stop-color="#FFD87E"/>
</radialGradient>
<radialGradient id="paint13_radial_73_1513" cx="0" cy="0" r="1" gradientUnits="userSpaceOnUse" gradientTransform="translate(12.646 20.954) rotate(-43.6028) scale(4.36132 3.55389)">
<stop offset="0.837" stop-color="#E3915B" stop-opacity="0"/>
<stop offset="1" stop-color="#E3915B"/>
</radialGradient>
<linearGradient id="paint14_linear_73_1513" x1="15.684" y1="17.401" x2="11.949" y2="21.191" gradientUnits="userSpaceOnUse">
<stop stop-color="#FBAC52"/>
<stop offset="1" stop-color="#FFB053"/>
</linearGradient>
<linearGradient id="paint15_linear_73_1513" x1="8.37496" y1="25.948" x2="3.31296" y2="21.479" gradientUnits="userSpaceOnUse">
<stop stop-color="#B36558"/>
<stop offset="1" stop-color="#B96779"/>
</linearGradient>
<linearGradient id="paint16_linear_73_1513" x1="8.307" y1="22.331" x2="3.964" y2="24.993" gradientUnits="userSpaceOnUse">
<stop stop-color="#BD6152"/>
<stop offset="1" stop-color="#AE6B71"/>
</linearGradient>
<radialGradient id="paint17_radial_73_1513" cx="0" cy="0" r="1" gradientUnits="userSpaceOnUse" gradientTransform="translate(7.584 25.05) rotate(-142.952) scale(5.57177 3.36972)">
<stop offset="0.888" stop-color="#AF4C46" stop-opacity="0"/>
<stop offset="1" stop-color="#AF4C46"/>
</radialGradient>
<linearGradient id="paint18_linear_73_1513" x1="24.059" y1="19.826" x2="23.915" y2="23.986" gradientUnits="userSpaceOnUse">
<stop stop-color="#FFD36A"/>
<stop offset="1" stop-color="#EFB872"/>
</linearGradient>
<radialGradient id="paint19_radial_73_1513" cx="0" cy="0" r="1" gradientUnits="userSpaceOnUse" gradientTransform="translate(25.35 24.823) rotate(-98.7873) scale(5.70898 4.73474)">
<stop offset="0.85" stop-color="#DFA14C" stop-opacity="0"/>
<stop offset="1" stop-color="#C28255"/>
</radialGradient>
<radialGradient id="paint20_radial_73_1513" cx="0" cy="0" r="1" gradientUnits="userSpaceOnUse" gradientTransform="translate(25.139 21.1244) rotate(122.849) scale(4.72413 4.02056)">
<stop offset="0.718" stop-color="#FFE38A" stop-opacity="0"/>
<stop offset="0.952" stop-color="#FFE38A"/>
</radialGradient>
<radialGradient id="paint21_radial_73_1513" cx="0" cy="0" r="1" gradientUnits="userSpaceOnUse" gradientTransform="translate(14.38 3.5) rotate(180) scale(3.00536 3.27072)">
<stop offset="0.437" stop-color="#F3BB63"/>
<stop offset="1" stop-color="#FFF3A5"/>
</radialGradient>
<radialGradient id="paint22_radial_73_1513" cx="0" cy="0" r="1" gradientUnits="userSpaceOnUse" gradientTransform="translate(12.068 3.5) scale(2.75536 2.97042)">
<stop offset="0.639" stop-color="#CD9E56" stop-opacity="0"/>
<stop offset="1" stop-color="#CD9E56"/>
</radialGradient>
<linearGradient id="paint23_linear_73_1513" x1="14.823" y1="3.16999" x2="13.643" y2="3.16999" gradientUnits="userSpaceOnUse">
<stop stop-color="#FDC36B"/>
<stop offset="1" stop-color="#FFDD7B"/>
</linearGradient>
</defs>
</svg>
