<svg width="16" height="16" viewBox="0 0 16 16" fill="none" xmlns="http://www.w3.org/2000/svg">
<path d="M11.5556 8C11.5556 7.51111 11.1556 7.11111 10.6667 7.11111H8C7.51111 7.11111 7.11111 7.51111 7.11111 8C7.11111 8.48889 7.51111 8.88889 8 8.88889H10.6667C11.1556 8.88889 11.5556 8.48889 11.5556 8ZM8 1.77778C11.4302 1.77778 14.2222 4.56978 14.2222 8C14.2222 11.4302 11.4302 14.2222 8 14.2222C4.56978 14.2222 1.77778 11.4302 1.77778 8C1.77778 4.56978 4.56978 1.77778 8 1.77778ZM8 0C3.58133 0 0 3.58133 0 8C0 12.4187 3.58133 16 8 16C12.4187 16 16 12.4187 16 8C16 3.58133 12.4187 0 8 0ZM8.88889 5.33333C8.88889 4.84445 8.48889 4.44445 8 4.44445C7.51111 4.44445 7.11111 4.84445 7.11111 5.33333V8C7.11111 8.48889 7.51111 8.88889 8 8.88889C8.48889 8.88889 8.88889 8.48889 8.88889 8V5.33333ZM8 3.55556C10.4507 3.55556 12.4444 5.54933 12.4444 8C12.4444 10.4507 10.4507 12.4444 8 12.4444C5.54933 12.4444 3.55556 10.4507 3.55556 8C3.55556 5.54933 5.54933 3.55556 8 3.55556ZM8 2.66667C6.58551 2.66667 5.22896 3.22857 4.22876 4.22877C3.22857 5.22896 2.66667 6.58551 2.66667 8C2.66667 9.41449 3.22857 10.771 4.22876 11.7712C5.22896 12.7714 6.58551 13.3333 8 13.3333C9.41449 13.3333 10.771 12.7714 11.7712 11.7712C12.7714 10.771 13.3333 9.41449 13.3333 8C13.3333 6.58551 12.7714 5.22896 11.7712 4.22877C10.771 3.22857 9.41449 2.66667 8 2.66667Z" fill="#1976D2"/>
</svg>
