<svg width="105" height="88" viewBox="0 0 105 88" fill="none" xmlns="http://www.w3.org/2000/svg">
<path d="M49.9091 80.6364H12.0909C8.17472 80.6364 5 77.4618 5 73.5455V12.0909C5 8.17472 8.17472 5 12.0909 5H92.4546C96.3709 5 99.5455 8.17472 99.5455 12.0909V47.2675" stroke="black" stroke-width="9.45455" stroke-linecap="round" stroke-linejoin="round"/>
<path d="M5 12.0909C5 8.17472 8.17472 5 12.0909 5H92.4546C96.3709 5 99.5455 8.17472 99.5455 12.0909V33.3636H5V12.0909Z" fill="#2F88FF" stroke="black" stroke-width="9.45455"/>
<path d="M75.9091 64.0909L66.4546 73.5455L75.9091 83" stroke="black" stroke-width="9.45455" stroke-linecap="round" stroke-linejoin="round"/>
<path d="M90.0909 64.0909L99.5455 73.5455L90.0909 83" stroke="black" stroke-width="9.45455" stroke-linecap="round" stroke-linejoin="round"/>
<path d="M14.4546 19.1818C14.4546 16.571 16.571 14.4545 19.1818 14.4545C21.7926 14.4545 23.9091 16.571 23.9091 19.1818C23.9091 21.7926 21.7926 23.9091 19.1818 23.9091C16.571 23.9091 14.4546 21.7926 14.4546 19.1818Z" fill="white"/>
<path d="M28.6364 19.1818C28.6364 16.571 30.7529 14.4545 33.3637 14.4545C35.9745 14.4545 38.0909 16.571 38.0909 19.1818C38.0909 21.7926 35.9745 23.9091 33.3637 23.9091C30.7529 23.9091 28.6364 21.7926 28.6364 19.1818Z" fill="white"/>
</svg>
