<svg width="77" height="88" viewBox="0 0 77 88" fill="none" xmlns="http://www.w3.org/2000/svg">
<path d="M23.5892 43.1784C34.4079 43.1784 43.1784 34.4079 43.1784 23.5892C43.1784 12.7704 34.4079 4 23.5892 4C12.7705 4 4 12.7704 4 23.5892C4 34.4079 12.7705 43.1784 23.5892 43.1784Z" fill="#2F88FF" stroke="black" stroke-width="7.83567" stroke-linejoin="round"/>
<path d="M43.1784 25.9438C43.2066 25.9719 52.4302 37.5712 70.8493 60.7413C71.4969 61.5198 71.4446 62.6634 70.7286 63.3796L62.7294 71.3788C62.0134 72.0948 60.8696 72.1471 60.0913 71.4995L27.1588 43.1784" stroke="black" stroke-width="7.83567" stroke-linecap="round" stroke-linejoin="round"/>
<path d="M44.0995 44.099L49.6401 49.6398" stroke="black" stroke-width="7.83567" stroke-linecap="round" stroke-linejoin="round"/>
<path d="M25.5481 82.5261C29.3026 77.6321 33.8672 75.185 39.2421 75.185C47.3044 75.185 56.8181 85.3142 64.9347 83.9201C73.0511 82.5261 75.3742 74.5212 70.3781 70.0891" stroke="black" stroke-width="7.83567" stroke-linecap="round" stroke-linejoin="round"/>
</svg>
