<svg width="48" height="48" viewBox="0 0 48 48" fill="none" xmlns="http://www.w3.org/2000/svg">
<path d="M47.9999 45.6L43.1999 40.8C44.0571 39.4286 44.5714 37.7143 44.5714 36C44.5714 31.2 40.7999 27.4286 35.9999 27.4286C31.1999 27.4286 27.4285 31.2 27.4285 36C27.4285 40.8 31.1999 44.5714 35.9999 44.5714C37.7142 44.5714 39.4285 44.0572 40.7999 43.2L45.5999 48L47.9999 45.6ZM30.8571 36C30.8571 33.0857 33.0856 30.8572 35.9999 30.8572C38.9142 30.8572 41.1428 33.0857 41.1428 36C41.1428 38.9143 38.9142 41.1429 35.9999 41.1429C33.0856 41.1429 30.8571 38.9143 30.8571 36ZM10.2856 24H27.4285V27.4286H10.2856V24ZM10.2856 13.7143H30.8571V17.1429H10.2856V13.7143Z" fill="white"/>
<path d="M20.5714 44.0571L11.6571 39.2571C6.51429 36.6857 3.42857 31.3714 3.42857 25.7143V3.42857H37.7143V22.2857H41.1429V3.42857C41.1429 1.54286 39.6 0 37.7143 0H3.42857C1.54286 0 0 1.54286 0 3.42857V25.7143C0 32.7429 3.77143 39.0857 9.94286 42.3429L20.5714 48V44.0571Z" fill="white"/>
</svg>
