<svg width="28" height="28" viewBox="0 0 28 28" fill="none" xmlns="http://www.w3.org/2000/svg">
<circle cx="14" cy="14" r="14" fill="white"/>
<path d="M25.7666 11.6498H24.8V11.6H14V16.4H20.7818C19.7924 19.1942 17.1338 21.2 14 21.2C10.0238 21.2 6.8 17.9762 6.8 14C6.8 10.0238 10.0238 6.8 14 6.8C15.8354 6.8 17.5052 7.4924 18.7766 8.6234L22.1708 5.2292C20.0276 3.2318 17.1608 2 14 2C7.373 2 2 7.373 2 14C2 20.627 7.373 26 14 26C20.627 26 26 20.627 26 14C26 13.1954 25.9172 12.41 25.7666 11.6498Z" fill="#FFC107"/>
<path d="M3.38379 8.4146L7.32639 11.306C8.39319 8.6648 10.9768 6.8 14.0002 6.8C15.8356 6.8 17.5054 7.4924 18.7768 8.6234L22.171 5.2292C20.0278 3.2318 17.161 2 14.0002 2C9.39099 2 5.39379 4.6022 3.38379 8.4146Z" fill="#FF3D00"/>
<path d="M13.9999 26C17.0995 26 19.9159 24.8138 22.0453 22.8848L18.3313 19.742C17.086 20.689 15.5644 21.2012 13.9999 21.2C10.8787 21.2 8.22849 19.2098 7.23009 16.4324L3.31689 19.4474C5.30289 23.3336 9.3361 26 13.9999 26Z" fill="#4CAF50"/>
<path d="M25.7666 11.6498H24.8V11.6H14V16.4H20.7818C20.3085 17.7298 19.456 18.8919 18.3296 19.7426L18.3314 19.7414L22.0454 22.8842C21.7826 23.123 26 20 26 14C26 13.1954 25.9172 12.41 25.7666 11.6498Z" fill="#1976D2"/>
</svg>
