<svg width="95" height="98" viewBox="0 0 95 98" fill="none" xmlns="http://www.w3.org/2000/svg">
<path d="M78.1734 49.8912L51.3799 44.8096L42.3718 18.9401L33.5946 21.9428L42.6027 47.5814L24.5864 68.3694L31.5158 74.3749L49.5321 53.5868L76.3256 58.6683L78.1734 49.8912Z" fill="#EF6C00"/>
<path d="M47.2223 36.9565C40.7549 36.9565 35.6733 42.0381 35.6733 48.5055C35.6733 54.9729 40.7549 60.0544 47.2223 60.0544C53.6896 60.0544 58.7712 54.9729 58.7712 48.5055C58.7712 42.0381 53.6896 36.9565 47.2223 36.9565ZM47.2223 53.125C44.6815 53.125 42.6027 51.0462 42.6027 48.5055C42.6027 45.9647 44.6815 43.8859 47.2223 43.8859C49.763 43.8859 51.8418 45.9647 51.8418 48.5055C51.8418 51.0462 49.763 53.125 47.2223 53.125Z" fill="#FF9800"/>
<path d="M85.7956 55.4348C86.2576 53.125 86.4885 50.8152 86.4885 48.5054C86.4885 46.1957 86.2576 43.8859 85.7956 41.5761L93.4179 36.0326C94.3418 35.3397 94.8038 33.9538 94.1108 32.7989L84.1788 15.7065C83.4858 14.5516 82.3309 14.0897 81.176 14.7826L72.6298 18.4783C69.1652 15.4755 65.0076 13.1658 60.619 11.5489L59.6951 2.0788C59.4641 0.923913 58.5402 0 57.3853 0H37.5211C36.3662 0 35.2114 0.923913 35.2114 2.0788L33.8255 11.5489C29.4369 13.1658 25.2793 15.4755 21.8146 18.4783L13.2684 14.5516C12.1135 14.0897 10.7277 14.5516 10.2657 15.7065L0.333635 32.7989C-0.3593 33.9538 0.102657 35.3397 1.02657 36.0326L8.64885 41.5761C8.1869 43.8859 7.95592 46.1957 7.95592 48.5054C7.95592 50.8152 8.1869 53.125 8.64885 55.4348L1.02657 60.9783C0.102657 61.6712 -0.3593 63.0571 0.333635 64.212L10.2657 81.3044C10.9586 82.4592 12.1135 82.9212 13.2684 82.2283L21.8146 78.5326C25.2793 81.5353 29.4369 83.8451 33.8255 85.462L34.7494 94.9321C34.9804 96.087 35.9043 97.0109 37.0592 97.0109H56.9233C58.0782 97.0109 59.2331 96.087 59.2331 94.9321L60.157 85.462C64.5456 83.8451 68.7032 81.5353 72.1679 78.5326L80.7141 82.4592C81.869 82.9212 83.2548 82.4592 83.7168 81.5353L93.6489 64.4429C94.3418 63.288 93.8798 61.9022 92.9559 61.2092L85.7956 55.4348ZM47.2222 73.913C33.1326 73.913 21.8146 62.5951 21.8146 48.5054C21.8146 34.4158 33.1326 23.0978 47.2222 23.0978C61.3119 23.0978 72.6298 34.4158 72.6298 48.5054C72.6298 62.5951 61.3119 73.913 47.2222 73.913Z" fill="#FF9800"/>
</svg>
