<svg width="23" height="24" viewBox="0 0 23 24" fill="none" xmlns="http://www.w3.org/2000/svg">
<path d="M5.71362 5.71354C5.41055 5.71354 5.11989 5.83393 4.90559 6.04824C4.69129 6.26254 4.57089 6.55319 4.57089 6.85626C4.57089 7.15933 4.69129 7.44999 4.90559 7.66429C5.11989 7.87859 5.41055 7.99899 5.71362 7.99899C6.01669 7.99899 6.30734 7.87859 6.52164 7.66429C6.73595 7.44999 6.85634 7.15933 6.85634 6.85626C6.85634 6.55319 6.73595 6.26254 6.52164 6.04824C6.30734 5.83393 6.01669 5.71354 5.71362 5.71354ZM2.47971 5.71354C2.7158 5.04444 3.15362 4.46504 3.73282 4.05521C4.31202 3.64538 5.00408 3.42529 5.71362 3.42529C6.42315 3.42529 7.11521 3.64538 7.69441 4.05521C8.27361 4.46504 8.71143 5.04444 8.94752 5.71354H17.1408C17.4439 5.71354 17.7346 5.83393 17.9489 6.04824C18.1632 6.26254 18.2836 6.55319 18.2836 6.85626C18.2836 7.15933 18.1632 7.44999 17.9489 7.66429C17.7346 7.87859 17.4439 7.99899 17.1408 7.99899H8.94752C8.71143 8.66809 8.27361 9.24749 7.69441 9.65732C7.11521 10.0671 6.42315 10.2872 5.71362 10.2872C5.00408 10.2872 4.31202 10.0671 3.73282 9.65732C3.15362 9.24749 2.7158 8.66809 2.47971 7.99899H1.14272C0.839654 7.99899 0.548998 7.87859 0.334696 7.66429C0.120394 7.44999 0 7.15933 0 6.85626C0 6.55319 0.120394 6.26254 0.334696 6.04824C0.548998 5.83393 0.839654 5.71354 1.14272 5.71354H2.47971ZM12.57 12.5699C12.2669 12.5699 11.9762 12.6903 11.7619 12.9046C11.5476 13.1189 11.4272 13.4095 11.4272 13.7126C11.4272 14.0157 11.5476 14.3063 11.7619 14.5206C11.9762 14.7349 12.2669 14.8553 12.57 14.8553C12.873 14.8553 13.1637 14.7349 13.378 14.5206C13.5923 14.3063 13.7127 14.0157 13.7127 13.7126C13.7127 13.4095 13.5923 13.1189 13.378 12.9046C13.1637 12.6903 12.873 12.5699 12.57 12.5699ZM9.33605 12.5699C9.57214 11.9008 10.01 11.3214 10.5892 10.9115C11.1684 10.5017 11.8604 10.2816 12.57 10.2816C13.2795 10.2816 13.9716 10.5017 14.5508 10.9115C15.13 11.3214 15.5678 11.9008 15.8039 12.5699H17.1408C17.4439 12.5699 17.7346 12.6903 17.9489 12.9046C18.1632 13.1189 18.2836 13.4095 18.2836 13.7126C18.2836 14.0157 18.1632 14.3063 17.9489 14.5206C17.7346 14.7349 17.4439 14.8553 17.1408 14.8553H15.8039C15.5678 15.5244 15.13 16.1038 14.5508 16.5137C13.9716 16.9235 13.2795 17.1436 12.57 17.1436C11.8604 17.1436 11.1684 16.9235 10.5892 16.5137C10.01 16.1038 9.57214 15.5244 9.33605 14.8553H1.14272C0.839654 14.8553 0.548998 14.7349 0.334696 14.5206C0.120394 14.3063 0 14.0157 0 13.7126C0 13.4095 0.120394 13.1189 0.334696 12.9046C0.548998 12.6903 0.839654 12.5699 1.14272 12.5699H9.33605ZM5.71362 19.4262C5.41055 19.4262 5.11989 19.5466 4.90559 19.7609C4.69129 19.9752 4.57089 20.2659 4.57089 20.5689C4.57089 20.872 4.69129 21.1627 4.90559 21.377C5.11989 21.5913 5.41055 21.7117 5.71362 21.7117C6.01669 21.7117 6.30734 21.5913 6.52164 21.377C6.73595 21.1627 6.85634 20.872 6.85634 20.5689C6.85634 20.2659 6.73595 19.9752 6.52164 19.7609C6.30734 19.5466 6.01669 19.4262 5.71362 19.4262ZM2.47971 19.4262C2.7158 18.7571 3.15362 18.1777 3.73282 17.7679C4.31202 17.3581 5.00408 17.138 5.71362 17.138C6.42315 17.138 7.11521 17.3581 7.69441 17.7679C8.27361 18.1777 8.71143 18.7571 8.94752 19.4262H17.1408C17.4439 19.4262 17.7346 19.5466 17.9489 19.7609C18.1632 19.9752 18.2836 20.2659 18.2836 20.5689C18.2836 20.872 18.1632 21.1627 17.9489 21.377C17.7346 21.5913 17.4439 21.7117 17.1408 21.7117H8.94752C8.71143 22.3808 8.27361 22.9602 7.69441 23.37C7.11521 23.7798 6.42315 23.9999 5.71362 23.9999C5.00408 23.9999 4.31202 23.7798 3.73282 23.37C3.15362 22.9602 2.7158 22.3808 2.47971 21.7117H1.14272C0.839654 21.7117 0.548998 21.5913 0.334696 21.377C0.120394 21.1627 0 20.872 0 20.5689C0 20.2659 0.120394 19.9752 0.334696 19.7609C0.548998 19.5466 0.839654 19.4262 1.14272 19.4262H2.47971Z" fill="white"/>
<circle cx="16.5701" cy="6.28498" r="6.28498" fill="#D83010"/>
<path d="M16.57 11.4273C17.9338 11.4273 19.2418 10.8856 20.2061 9.9212C21.1705 8.95684 21.7122 7.64889 21.7122 6.28508C21.7122 4.92127 21.1705 3.61331 20.2061 2.64895C19.2418 1.68459 17.9338 1.14282 16.57 1.14282C15.2062 1.14282 13.8982 1.68459 12.9339 2.64895C11.9695 3.61331 11.4277 4.92127 11.4277 6.28508C11.4277 7.64889 11.9695 8.95684 12.9339 9.9212C13.8982 10.8856 15.2062 11.4273 16.57 11.4273ZM18.6886 4.16647C18.7418 4.21954 18.784 4.28259 18.8128 4.35201C18.8416 4.42142 18.8565 4.49584 18.8565 4.57099C18.8565 4.64615 18.8416 4.72056 18.8128 4.78998C18.784 4.85939 18.7418 4.92244 18.6886 4.97552L17.3779 6.28508L18.6886 7.59464C18.7959 7.70192 18.8562 7.84744 18.8562 7.99916C18.8562 8.15089 18.7959 8.2964 18.6886 8.40369C18.5813 8.51097 18.4358 8.57125 18.2841 8.57125C18.1323 8.57125 17.9868 8.51097 17.8796 8.40369L16.57 7.09298L15.2604 8.40369C15.2073 8.45681 15.1442 8.49895 15.0748 8.5277C15.0054 8.55645 14.931 8.57125 14.8559 8.57125C14.7808 8.57125 14.7064 8.55645 14.637 8.5277C14.5676 8.49895 14.5045 8.45681 14.4514 8.40369C14.3983 8.35056 14.3561 8.2875 14.3274 8.21809C14.2986 8.14868 14.2838 8.07429 14.2838 7.99916C14.2838 7.92404 14.2986 7.84964 14.3274 7.78024C14.3561 7.71083 14.3983 7.64776 14.4514 7.59464L15.7621 6.28508L14.4514 4.97552C14.3441 4.86823 14.2838 4.72272 14.2838 4.57099C14.2838 4.41927 14.3441 4.27375 14.4514 4.16647C14.5587 4.05918 14.7042 3.99891 14.8559 3.99891C15.0076 3.99891 15.1531 4.05918 15.2604 4.16647L16.57 5.47717L17.8796 4.16647C17.9326 4.11326 17.9957 4.07104 18.0651 4.04224C18.1345 4.01344 18.2089 3.99861 18.2841 3.99861C18.3592 3.99861 18.4336 4.01344 18.5031 4.04224C18.5725 4.07104 18.6355 4.11326 18.6886 4.16647Z" fill="white"/>
</svg>
