<svg width="80" height="80" viewBox="0 0 80 80" fill="none" xmlns="http://www.w3.org/2000/svg">
<path d="M39.9996 17.1429C37.1741 17.1429 34.4121 17.9807 32.0629 19.5504C29.7136 21.1202 27.8826 23.3513 26.8013 25.9617C25.7201 28.572 25.4372 31.4444 25.9884 34.2156C26.5396 36.9867 27.9002 39.5322 29.8981 41.5301C31.896 43.528 34.4414 44.8886 37.2126 45.4398C39.9837 45.991 42.8561 45.7081 45.4665 44.6268C48.0769 43.5456 50.308 41.7146 51.8777 39.3653C53.4475 37.016 54.2853 34.254 54.2853 31.4286C54.2853 27.6398 52.7802 24.0061 50.1011 21.327C47.422 18.6479 43.7884 17.1429 39.9996 17.1429Z" fill="#111827"/>
<path d="M40 0C32.0888 0 24.3552 2.34596 17.7772 6.74121C11.1992 11.1365 6.07234 17.3836 3.04484 24.6927C0.0173313 32.0017 -0.774802 40.0444 0.768607 47.8036C2.31201 55.5628 6.12164 62.6901 11.7157 68.2842C17.3098 73.8783 24.4372 77.688 32.1964 79.2314C39.9556 80.7748 47.9983 79.9827 55.3073 76.9552C62.6164 73.9277 68.8635 68.8008 73.2588 62.2228C77.654 55.6448 80 47.9112 80 40C79.9879 29.395 75.7697 19.2279 68.2709 11.7291C60.7721 4.23026 50.6049 0.0120992 40 0V0ZM62.8343 65.5028C62.7773 61.7552 61.2505 58.18 58.5826 55.5474C55.9147 52.9148 52.3195 51.4356 48.5714 51.4286H31.4286C27.6805 51.4356 24.0853 52.9148 21.4174 55.5474C18.7496 58.18 17.2227 61.7552 17.1657 65.5028C11.9845 60.8764 8.33067 54.7853 6.68811 48.0362C5.04556 41.287 5.49173 34.1981 7.96755 27.7082C10.4434 21.2182 14.8321 15.6333 20.5525 11.693C26.2729 7.75276 33.0553 5.64293 40.0014 5.64293C46.9476 5.64293 53.7299 7.75276 59.4504 11.693C65.1708 15.6333 69.5595 21.2182 72.0353 27.7082C74.5111 34.1981 74.9573 41.287 73.3148 48.0362C71.6722 54.7853 68.0184 60.8764 62.8371 65.5028H62.8343Z" fill="#111827"/>
</svg>
