<svg width="109" height="94" viewBox="0 0 109 94" fill="none" xmlns="http://www.w3.org/2000/svg">
<path d="M54.5 41.6875C56.3451 41.6875 58.1014 42.0423 59.769 42.752C61.4367 43.4616 62.8737 44.4373 64.0801 45.6792C65.2865 46.9211 66.2622 48.3758 67.0073 50.0435C67.7524 51.7111 68.125 53.4674 68.125 55.3125C68.125 57.193 67.7702 58.9494 67.0605 60.5815C66.3509 62.2137 65.3752 63.6507 64.1333 64.8926C62.8914 66.1344 61.4367 67.1102 59.769 67.8198C58.1014 68.5295 56.3451 68.902 54.5 68.9375C52.6195 68.9375 50.8631 68.5827 49.231 67.873C47.5988 67.1634 46.1618 66.1877 44.9199 64.9458C43.6781 63.7039 42.7023 62.2669 41.9927 60.6348C41.283 59.0026 40.9105 57.2285 40.875 55.3125C40.875 53.4674 41.2298 51.7111 41.9395 50.0435C42.6491 48.3758 43.6248 46.9388 44.8667 45.7324C46.1086 44.526 47.5456 43.5503 49.1777 42.8052C50.8099 42.0601 52.584 41.6875 54.5 41.6875ZM54.5 62.125C55.458 62.125 56.3451 61.9476 57.1611 61.5928C57.9772 61.238 58.6868 60.759 59.29 60.1558C59.8932 59.5526 60.39 58.8252 60.7803 57.9736C61.1706 57.1221 61.348 56.235 61.3125 55.3125C61.3125 54.3545 61.1351 53.4674 60.7803 52.6514C60.4255 51.8353 59.9465 51.1257 59.3433 50.5225C58.7401 49.9193 58.0127 49.4225 57.1611 49.0322C56.3096 48.6419 55.4225 48.4645 54.5 48.5C53.542 48.5 52.6549 48.6774 51.8389 49.0322C51.0228 49.387 50.3132 49.866 49.71 50.4692C49.1068 51.0724 48.61 51.7998 48.2197 52.6514C47.8294 53.5029 47.652 54.39 47.6875 55.3125C47.6875 56.2705 47.8649 57.1576 48.2197 57.9736C48.5745 58.7897 49.0535 59.4993 49.6567 60.1025C50.2599 60.7057 50.9873 61.2025 51.8389 61.5928C52.6904 61.9831 53.5775 62.1605 54.5 62.125ZM54.5 0.8125C59.5029 0.8125 64.3107 1.45117 68.9233 2.72852C73.536 4.00586 77.8825 5.85091 81.9629 8.26367C86.0433 10.6764 89.7157 13.515 92.98 16.7793C96.2443 20.0436 99.1006 23.7337 101.549 27.8496C103.997 31.9655 105.824 36.2943 107.031 40.8359C108.237 45.3776 108.894 50.2031 109 55.3125C109 58.9316 108.645 62.4798 107.936 65.957C107.226 69.4342 106.197 72.8228 104.849 76.1226C103.5 79.4224 101.833 82.5625 99.8457 85.543C97.8587 88.5234 95.5879 91.291 93.0332 93.8457L88.2432 89.0557C90.4785 86.8203 92.4478 84.4076 94.1509 81.8174C95.854 79.2272 97.3088 76.4774 98.5151 73.5679C99.7215 70.6584 100.626 67.6956 101.229 64.6797C101.833 61.6637 102.152 58.5413 102.188 55.3125C102.188 50.9128 101.62 46.6904 100.484 42.6455C99.349 38.6006 97.7523 34.804 95.6943 31.2559C93.6364 27.7077 91.1527 24.4966 88.2432 21.6226C85.3337 18.7485 82.1226 16.2648 78.6099 14.1714C75.0972 12.078 71.3006 10.4635 67.2202 9.32812C63.1398 8.19271 58.8997 7.625 54.5 7.625C50.1003 7.625 45.8779 8.19271 41.833 9.32812C37.7881 10.4635 33.9915 12.0602 30.4434 14.1182C26.8952 16.1761 23.6841 18.6598 20.8101 21.5693C17.936 24.4788 15.4523 27.6899 13.3589 31.2026C11.2655 34.7153 9.65104 38.5119 8.51562 42.5923C7.38021 46.6727 6.8125 50.9128 6.8125 55.3125C6.8125 58.4704 7.1141 61.575 7.71729 64.6265C8.32048 67.6779 9.22526 70.6584 10.4316 73.5679C11.638 76.4774 13.0928 79.2095 14.7959 81.7642C16.499 84.3188 18.486 86.7493 20.7568 89.0557L15.9668 93.8457C13.4121 91.291 11.1413 88.5234 9.1543 85.543C7.16732 82.5625 5.49967 79.4401 4.15137 76.1758C2.80306 72.9115 1.77409 69.5229 1.06445 66.0103C0.354818 62.4976 0 58.9316 0 55.3125C0 50.3096 0.638672 45.5018 1.91602 40.8892C3.19336 36.2765 5.03841 31.93 7.45117 27.8496C9.86393 23.7692 12.7025 20.0968 15.9668 16.8325C19.2311 13.5682 22.9212 10.7119 27.0371 8.26367C31.153 5.81543 35.4818 3.98812 40.0234 2.78174C44.5651 1.57536 49.3906 0.918945 54.5 0.8125ZM54.5 21.25C59.2191 21.25 63.6366 22.137 67.7524 23.9111C71.8683 25.6852 75.4875 28.1157 78.6099 31.2026C81.7323 34.2896 84.1628 37.891 85.9014 42.0068C87.64 46.1227 88.527 50.5579 88.5625 55.3125C88.5625 59.8542 87.7109 64.2007 86.0078 68.3521C84.3047 72.5034 81.8387 76.1935 78.6099 79.4224L73.7666 74.5791C76.3213 72.0244 78.2905 69.0794 79.6743 65.7441C81.0581 62.4089 81.75 58.9316 81.75 55.3125C81.75 51.5514 81.0404 48.021 79.6211 44.7212C78.2018 41.4214 76.2503 38.5474 73.7666 36.0991C71.2829 33.6509 68.3911 31.6994 65.0913 30.2446C61.7915 28.7899 58.2611 28.0625 54.5 28.0625C50.7389 28.0625 47.2085 28.7721 43.9087 30.1914C40.6089 31.6107 37.7349 33.5622 35.2866 36.0459C32.8384 38.5296 30.8869 41.4214 29.4321 44.7212C27.9774 48.021 27.25 51.5514 27.25 55.3125C27.25 58.9316 27.9419 62.4089 29.3257 65.7441C30.7095 69.0794 32.6787 72.0244 35.2334 74.5791L30.3901 79.4224C27.1968 76.1935 24.7485 72.5034 23.0454 68.3521C21.3423 64.2007 20.473 59.8542 20.4375 55.3125C20.4375 50.5934 21.3245 46.1759 23.0986 42.0601C24.8727 37.9442 27.3032 34.325 30.3901 31.2026C33.4771 28.0802 37.0785 25.6497 41.1943 23.9111C45.3102 22.1725 49.7454 21.2855 54.5 21.25Z" fill="black"/>
</svg>
