<svg width="628" height="440" viewBox="0 0 628 440" fill="none" xmlns="http://www.w3.org/2000/svg">
<path d="M96.98 133.83H18.38C8.25 133.83 0 125.59 0 115.45V36.85C0 26.72 8.24 18.47 18.38 18.47H96.98C107.11 18.47 115.36 26.71 115.36 36.85V115.45C115.36 125.58 107.12 133.83 96.98 133.83ZM18.38 20.48C9.35 20.48 2 27.83 2 36.86V115.46C2 124.49 9.35 131.84 18.38 131.84H96.98C106.01 131.84 113.36 124.49 113.36 115.46V36.86C113.36 27.83 106.01 20.48 96.98 20.48H18.38Z" fill="#CCCCCC"/>
<path d="M267.66 133.83H189.06C178.93 133.83 170.68 125.59 170.68 115.45V36.85C170.68 26.72 178.92 18.47 189.06 18.47H267.66C277.79 18.47 286.04 26.71 286.04 36.85V115.45C286.04 125.58 277.8 133.83 267.66 133.83ZM189.06 20.47C180.03 20.47 172.68 27.82 172.68 36.85V115.45C172.68 124.48 180.03 131.83 189.06 131.83H267.66C276.69 131.83 284.04 124.48 284.04 115.45V36.85C284.04 27.82 276.69 20.47 267.66 20.47H189.06Z" fill="#CCCCCC"/>
<path d="M267.66 347.9H189.06C178.93 347.9 170.68 339.66 170.68 329.52V250.92C170.68 240.79 178.92 232.54 189.06 232.54H267.66C277.79 232.54 286.04 240.78 286.04 250.92V329.52C286.04 339.65 277.8 347.9 267.66 347.9ZM189.06 234.54C180.03 234.54 172.68 241.89 172.68 250.92V329.52C172.68 338.55 180.03 345.9 189.06 345.9H267.66C276.69 345.9 284.04 338.55 284.04 329.52V250.92C284.04 241.89 276.69 234.54 267.66 234.54H189.06Z" fill="#CCCCCC"/>
<path d="M96.98 347.9H18.38C8.25 347.9 0 339.66 0 329.52V250.92C0 240.79 8.24 232.54 18.38 232.54H96.98C107.11 232.54 115.36 240.78 115.36 250.92V329.52C115.36 339.65 107.12 347.9 96.98 347.9ZM18.38 234.54C9.35 234.54 2 241.89 2 250.92V329.52C2 338.55 9.35 345.9 18.38 345.9H96.98C106.01 345.9 113.36 338.55 113.36 329.52V250.92C113.36 241.89 106.01 234.54 96.98 234.54H18.38Z" fill="#CCCCCC"/>
<path d="M111.03 260.97C123.903 260.97 134.34 250.534 134.34 237.66C134.34 224.786 123.903 214.35 111.03 214.35C98.156 214.35 87.7197 224.786 87.7197 237.66C87.7197 250.534 98.156 260.97 111.03 260.97Z" fill="#278CEA"/>
<path d="M438.34 133.83H359.74C349.61 133.83 341.36 125.59 341.36 115.45V36.85C341.36 26.72 349.6 18.47 359.74 18.47H438.34C448.47 18.47 456.72 26.71 456.72 36.85V115.45C456.72 125.58 448.48 133.83 438.34 133.83ZM359.74 20.47C350.71 20.47 343.36 27.82 343.36 36.85V115.45C343.36 124.48 350.71 131.83 359.74 131.83H438.34C447.37 131.83 454.72 124.48 454.72 115.45V36.85C454.72 27.82 447.37 20.47 438.34 20.47H359.74Z" fill="#CCCCCC"/>
<path d="M455.72 46.91C468.594 46.91 479.03 36.4738 479.03 23.6C479.03 10.7263 468.594 0.290039 455.72 0.290039C442.846 0.290039 432.41 10.7263 432.41 23.6C432.41 36.4738 442.846 46.91 455.72 46.91Z" fill="#278CEA"/>
<path d="M78.2099 157.83H31.3199C27.6499 157.83 24.6699 154.85 24.6699 151.18C24.6699 147.51 27.6499 144.53 31.3199 144.53H78.2099C81.8799 144.53 84.8599 147.51 84.8599 151.18C84.8599 154.85 81.8799 157.83 78.2099 157.83Z" fill="#E6E6E6"/>
<path d="M251.8 157.83H204.91C201.24 157.83 198.26 154.85 198.26 151.18C198.26 147.51 201.24 144.53 204.91 144.53H251.8C255.47 144.53 258.45 147.51 258.45 151.18C258.45 154.85 255.47 157.83 251.8 157.83Z" fill="#E6E6E6"/>
<path d="M425.4 157.83H378.51C374.84 157.83 371.86 154.85 371.86 151.18C371.86 147.51 374.84 144.53 378.51 144.53H425.4C429.07 144.53 432.05 147.51 432.05 151.18C432.05 154.85 429.07 157.83 425.4 157.83Z" fill="#E6E6E6"/>
<path d="M438.34 349.9H359.74C349.61 349.9 341.36 341.66 341.36 331.52V252.92C341.36 242.79 349.6 234.54 359.74 234.54H438.34C448.47 234.54 456.72 242.78 456.72 252.92V331.52C456.72 341.65 448.48 349.9 438.34 349.9ZM359.74 236.54C350.71 236.54 343.36 243.89 343.36 252.92V331.52C343.36 340.55 350.71 347.9 359.74 347.9H438.34C447.37 347.9 454.72 340.55 454.72 331.52V252.92C454.72 243.89 447.37 236.54 438.34 236.54H359.74Z" fill="#CCCCCC"/>
<path d="M608.98 349.9H530.38C520.25 349.9 512 341.66 512 331.52V252.92C512 242.79 520.24 234.54 530.38 234.54H608.98C619.11 234.54 627.36 242.78 627.36 252.92V331.52C627.36 341.65 619.12 349.9 608.98 349.9ZM530.38 236.54C521.35 236.54 514 243.89 514 252.92V331.52C514 340.55 521.35 347.9 530.38 347.9H608.98C618.01 347.9 625.36 340.55 625.36 331.52V252.92C625.36 243.89 618.01 236.54 608.98 236.54H530.38Z" fill="#CCCCCC"/>
<path d="M425.4 373.89H378.51C374.84 373.89 371.86 370.91 371.86 367.24C371.86 363.57 374.84 360.59 378.51 360.59H425.4C429.07 360.59 432.05 363.57 432.05 367.24C432.05 370.91 429.07 373.89 425.4 373.89Z" fill="#E6E6E6"/>
<path d="M596.04 373.89H549.15C545.48 373.89 542.5 370.91 542.5 367.24C542.5 363.57 545.48 360.59 549.15 360.59H596.04C599.71 360.59 602.69 363.57 602.69 367.24C602.69 370.91 599.71 373.89 596.04 373.89Z" fill="#E6E6E6"/>
<path d="M609.03 133.83H530.43C520.3 133.83 512.05 125.59 512.05 115.45V36.85C512.05 26.72 520.29 18.47 530.43 18.47H609.03C619.16 18.47 627.41 26.71 627.41 36.85V115.45C627.41 125.58 619.17 133.83 609.03 133.83ZM530.43 20.47C521.4 20.47 514.05 27.82 514.05 36.85V115.45C514.05 124.48 521.4 131.83 530.43 131.83H609.03C618.06 131.83 625.41 124.48 625.41 115.45V36.85C625.41 27.82 618.06 20.47 609.03 20.47H530.43Z" fill="#CCCCCC"/>
<path d="M596.08 157.83H549.19C545.52 157.83 542.54 154.85 542.54 151.18C542.54 147.51 545.52 144.53 549.19 144.53H596.08C599.75 144.53 602.73 147.51 602.73 151.18C602.73 154.85 599.75 157.83 596.08 157.83Z" fill="#E6E6E6"/>
<path d="M78.2099 371.89H31.3199C27.6499 371.89 24.6699 368.91 24.6699 365.24C24.6699 361.57 27.6499 358.59 31.3199 358.59H78.2099C81.8799 358.59 84.8599 361.57 84.8599 365.24C84.8599 368.91 81.8799 371.89 78.2099 371.89Z" fill="#E6E6E6"/>
<path d="M251.8 371.89H204.91C201.24 371.89 198.26 368.91 198.26 365.24C198.26 361.57 201.24 358.59 204.91 358.59H251.8C255.47 358.59 258.45 361.57 258.45 365.24C258.45 368.91 255.47 371.89 251.8 371.89Z" fill="#E6E6E6"/>
<path d="M455.984 273.696C455.155 275.054 453.821 276.028 452.274 276.402C450.727 276.777 449.095 276.522 447.737 275.693L377.732 232.993C377.059 232.583 376.474 232.044 376.01 231.408C375.545 230.771 375.211 230.049 375.025 229.284C374.84 228.518 374.807 227.723 374.928 226.945C375.05 226.166 375.324 225.419 375.734 224.746C376.144 224.074 376.683 223.488 377.32 223.024C377.956 222.56 378.678 222.225 379.444 222.04C380.209 221.854 381.004 221.821 381.783 221.943C382.561 222.064 383.308 222.338 383.981 222.749L453.986 265.449C455.344 266.278 456.318 267.612 456.693 269.158C457.067 270.705 456.812 272.337 455.984 273.696Z" fill="#3F3D56"/>
<path d="M385.978 230.995C381.035 239.1 373.799 245.557 365.186 249.549C356.573 253.542 346.969 254.89 337.589 253.424C328.209 251.959 319.475 247.745 312.491 241.315C305.506 234.885 300.585 226.528 298.35 217.302C296.114 208.075 296.665 198.393 299.933 189.479C303.2 180.566 309.037 172.822 316.706 167.226C324.375 161.63 333.531 158.433 343.016 158.041C352.502 157.649 361.891 160.078 369.995 165.022C380.852 171.661 388.632 182.335 391.629 194.703C394.625 207.072 392.593 220.123 385.978 230.995ZM314.266 187.254C310.558 193.332 308.737 200.374 309.031 207.488C309.325 214.602 311.722 221.469 315.919 227.22C320.116 232.972 325.925 237.35 332.61 239.801C339.295 242.251 346.556 242.664 353.476 240.988C360.396 239.311 366.664 235.621 371.486 230.382C376.308 225.144 379.469 218.593 380.568 211.558C381.668 204.523 380.656 197.321 377.662 190.861C374.668 184.401 369.825 178.974 363.746 175.266C355.593 170.305 345.804 168.781 336.528 171.029C327.251 173.276 319.245 179.111 314.266 187.254Z" fill="#3F3D56"/>
<path d="M253.22 439.44C261.074 439.44 267.44 433.073 267.44 425.22C267.44 417.366 261.074 411 253.22 411C245.367 411 239 417.366 239 425.22C239 433.073 245.367 439.44 253.22 439.44Z" fill="#3F3D56"/>
<path d="M313.66 439.44C321.514 439.44 327.881 433.073 327.881 425.22C327.881 417.366 321.514 411 313.66 411C305.807 411 299.44 417.366 299.44 425.22C299.44 433.073 305.807 439.44 313.66 439.44Z" fill="#3F3D56"/>
<path d="M374.101 439.44C381.954 439.44 388.321 433.073 388.321 425.22C388.321 417.366 381.954 411 374.101 411C366.247 411 359.881 417.366 359.881 425.22C359.881 433.073 366.247 439.44 374.101 439.44Z" fill="#3F3D56"/>
</svg>
