<svg width="56" height="98" viewBox="0 0 56 98" fill="none" xmlns="http://www.w3.org/2000/svg">
<path d="M26.1216 7.46332C28.1826 7.46332 29.8533 5.7926 29.8533 3.73166C29.8533 1.67072 28.1826 0 26.1216 0C24.0607 0 22.39 1.67072 22.39 3.73166C22.39 5.7926 24.0607 7.46332 26.1216 7.46332Z" fill="#9266CC"/>
<path d="M33.5849 26.1216C35.6459 26.1216 37.3166 24.4509 37.3166 22.39C37.3166 20.329 35.6459 18.6583 33.5849 18.6583C31.524 18.6583 29.8533 20.329 29.8533 22.39C29.8533 24.4509 31.524 26.1216 33.5849 26.1216Z" fill="#9266CC"/>
<path d="M20.5241 22.39C23.6155 22.39 26.1216 19.884 26.1216 16.7926C26.1216 13.7011 23.6155 11.1951 20.5241 11.1951C17.4327 11.1951 14.9266 13.7011 14.9266 16.7926C14.9266 19.884 17.4327 22.39 20.5241 22.39Z" fill="#9266CC"/>
<path d="M37.3166 29.8533H18.6583C18.6583 29.8533 11.195 29.8533 11.195 37.3166C11.195 44.7799 18.6583 44.7799 18.6583 44.7799V63.4382L3.73166 82.0965C0.436604 86.2162 0 88.8918 0 89.5598C0 97.0231 7.46332 97.0231 7.46332 97.0231H48.5116C48.5116 97.0231 55.9749 97.0231 55.9749 89.5598C55.9749 89.0598 56.5458 87.4738 52.2432 82.0965L37.3166 63.4382V44.7799C37.3166 44.7799 44.7799 44.7799 44.7799 37.3166C44.7799 29.8533 37.3166 29.8533 37.3166 29.8533Z" fill="#A8BCCC"/>
<path d="M33.5849 64.748V41.0483H37.3166C38.9921 41.0035 41.0482 40.3243 41.0482 37.3166C41.0482 34.3201 39.007 33.6335 37.2867 33.585H18.6583C16.979 33.6297 14.9266 34.3089 14.9266 37.3166C14.9266 40.3243 16.979 41.0035 18.7031 41.0483L22.3414 41.1378L22.39 64.748L15.3222 73.5846L27.9874 86.6454L40.6527 73.5846L33.5849 64.748Z" fill="#E1E8ED"/>
<path d="M3.72803 89.6867C3.73176 92.5675 5.78417 93.2467 7.5082 93.2915H48.5117C50.1872 93.2467 52.2433 92.5675 52.2433 89.5598V89.4068L52.2657 89.1008C52.2657 89.0896 52.0605 87.8433 49.3289 84.4288L40.6528 73.5846H15.3223L6.64618 84.4288C3.96312 87.7836 3.72803 89.668 3.72803 89.6867Z" fill="#9266CC"/>
</svg>
