<svg width="24" height="24" viewBox="0 0 24 24" fill="none" xmlns="http://www.w3.org/2000/svg">
<path d="M10.8926 7.03543C11.0535 6.87448 11.1439 6.65619 11.1439 6.42857C11.1439 6.20096 11.0535 5.98266 10.8926 5.82171C10.7316 5.66077 10.5133 5.57035 10.2857 5.57035C10.0581 5.57035 9.83981 5.66077 9.67886 5.82171L7.25829 8.24229L6.57771 7.62171C6.40862 7.47718 6.18995 7.40405 5.96792 7.41777C5.74589 7.43149 5.5379 7.531 5.38789 7.69526C5.23787 7.85951 5.15759 8.07566 5.16401 8.29802C5.17043 8.52037 5.26305 8.73153 5.42229 8.88686L6.708 10.0611C6.87091 10.2095 7.08467 10.2894 7.30492 10.2843C7.52517 10.2791 7.735 10.1894 7.89086 10.0337L10.8909 7.03371L10.8926 7.03543ZM10.8926 14.3931C10.9724 14.4728 11.0357 14.5674 11.0789 14.6715C11.1221 14.7756 11.1444 14.8873 11.1444 15C11.1444 15.1127 11.1221 15.2244 11.0789 15.3285C11.0357 15.4326 10.9724 15.5272 10.8926 15.6069L7.89257 18.6069C7.73641 18.7628 7.5261 18.8526 7.30544 18.8573C7.08478 18.8621 6.87078 18.7816 6.708 18.6326L5.42229 17.4583C5.26305 17.303 5.17043 17.0918 5.16401 16.8694C5.15759 16.6471 5.23787 16.4309 5.38789 16.2667C5.5379 16.1024 5.74589 16.0029 5.96792 15.9892C6.18995 15.9755 6.40862 16.0486 6.57771 16.1931L7.25829 16.8154L9.67886 14.3931C9.75848 14.3133 9.85307 14.25 9.9572 14.2068C10.0613 14.1636 10.173 14.1413 10.2857 14.1413C10.3985 14.1413 10.5101 14.1636 10.6142 14.2068C10.7184 14.25 10.813 14.3133 10.8926 14.3931V14.3931ZM13.7143 15.4286C13.487 15.4286 13.2689 15.5189 13.1082 15.6796C12.9474 15.8404 12.8571 16.0584 12.8571 16.2857C12.8571 16.513 12.9474 16.7311 13.1082 16.8918C13.2689 17.0526 13.487 17.1429 13.7143 17.1429H18C18.2273 17.1429 18.4453 17.0526 18.6061 16.8918C18.7668 16.7311 18.8571 16.513 18.8571 16.2857C18.8571 16.0584 18.7668 15.8404 18.6061 15.6796C18.4453 15.5189 18.2273 15.4286 18 15.4286H13.7143ZM12.8571 7.71429C12.8571 7.48696 12.9474 7.26894 13.1082 7.10819C13.2689 6.94745 13.487 6.85714 13.7143 6.85714H18C18.2273 6.85714 18.4453 6.94745 18.6061 7.10819C18.7668 7.26894 18.8571 7.48696 18.8571 7.71429C18.8571 7.94161 18.7668 8.15963 18.6061 8.32038C18.4453 8.48112 18.2273 8.57143 18 8.57143H13.7143C13.487 8.57143 13.2689 8.48112 13.1082 8.32038C12.9474 8.15963 12.8571 7.94161 12.8571 7.71429ZM5.14286 0C3.77889 0 2.47078 0.541835 1.50631 1.50631C0.541835 2.47078 0 3.77889 0 5.14286V18.8571C0 20.2211 0.541835 21.5292 1.50631 22.4937C2.47078 23.4582 3.77889 24 5.14286 24H18.8571C20.2211 24 21.5292 23.4582 22.4937 22.4937C23.4582 21.5292 24 20.2211 24 18.8571V5.14286C24 3.77889 23.4582 2.47078 22.4937 1.50631C21.5292 0.541835 20.2211 0 18.8571 0H5.14286ZM1.71429 5.14286C1.71429 4.23354 2.07551 3.36147 2.71849 2.71849C3.36147 2.07551 4.23354 1.71429 5.14286 1.71429H18.8571C19.7665 1.71429 20.6385 2.07551 21.2815 2.71849C21.9245 3.36147 22.2857 4.23354 22.2857 5.14286V18.8571C22.2857 19.7665 21.9245 20.6385 21.2815 21.2815C20.6385 21.9245 19.7665 22.2857 18.8571 22.2857H5.14286C4.23354 22.2857 3.36147 21.9245 2.71849 21.2815C2.07551 20.6385 1.71429 19.7665 1.71429 18.8571V5.14286Z" fill="black"/>
</svg>
