<svg width="24" height="27" viewBox="0 0 24 27" fill="none" xmlns="http://www.w3.org/2000/svg">
<path d="M21.2308 14.3871V13.8462H19.3846V14.7692C19.3847 15.014 19.482 15.2488 19.6551 15.4218L22.1538 17.9206V19.3846H1.84615V17.9206L4.34492 15.4218C4.51805 15.2488 4.61533 15.014 4.61538 14.7692V11.0769C4.61281 9.77981 4.95259 8.50499 5.60039 7.38121C6.24819 6.25744 7.18108 5.32452 8.30483 4.67668C9.42858 4.02884 10.7034 3.68902 12.0005 3.69155L12.9231 1.89323V0H11.0769V1.89231C8.80114 2.12394 6.69209 3.19118 5.15757 4.88767C3.62306 6.58417 2.77209 8.78939 2.76923 11.0769V14.3871L0.270462 16.8858C0.097339 17.0589 5.22807e-05 17.2937 0 17.5385V20.3077C0 20.5525 0.0972524 20.7873 0.270363 20.9604C0.443473 21.1335 0.678262 21.2308 0.923077 21.2308H7.38462V22.1538C7.38462 23.3779 7.87088 24.5519 8.73643 25.4174C9.60198 26.283 10.7759 26.7692 12 26.7692C13.2241 26.7692 14.398 26.283 15.2636 25.4174C16.1291 24.5519 16.6154 23.3779 16.6154 22.1538V21.2308H23.0769C23.3217 21.2308 23.5565 21.1335 23.7296 20.9604C23.9027 20.7873 24 20.5525 24 20.3077V17.5385C23.9999 17.2937 23.9027 17.0589 23.7295 16.8858L21.2308 14.3871ZM14.7692 22.1538C14.7692 22.8883 14.4775 23.5927 13.9581 24.112C13.4388 24.6313 12.7344 24.9231 12 24.9231C11.2656 24.9231 10.5612 24.6313 10.0419 24.112C9.52253 23.5927 9.23077 22.8883 9.23077 22.1538V21.2308H14.7692V22.1538Z" fill="#278CEA"/>
</svg>
