<svg width="79" height="79" viewBox="0 0 79 79" fill="none" xmlns="http://www.w3.org/2000/svg">
<path d="M61.6875 30.625C69.0398 30.625 75 24.6648 75 17.3125C75 9.96021 69.0398 4 61.6875 4C54.3352 4 48.375 9.96021 48.375 17.3125C48.375 24.6648 54.3352 30.625 61.6875 30.625Z" stroke="black" stroke-width="6.65625" stroke-linecap="round" stroke-linejoin="round"/>
<path d="M17.3125 75C24.6648 75 30.625 69.0398 30.625 61.6875C30.625 54.3352 24.6648 48.375 17.3125 48.375C9.96021 48.375 4 54.3352 4 61.6875C4 69.0398 9.96021 75 17.3125 75Z" stroke="black" stroke-width="6.65625" stroke-linecap="round" stroke-linejoin="round"/>
<path d="M48.375 48.375H75V70.5625C75 71.7394 74.5325 72.8681 73.7003 73.7003C72.8681 74.5325 71.7394 75 70.5625 75H52.8125C51.6356 75 50.5069 74.5325 49.6747 73.7003C48.8425 72.8681 48.375 71.7394 48.375 70.5625V48.375ZM4 4H30.625V26.1875C30.625 27.3644 30.1575 28.4931 29.3253 29.3253C28.4931 30.1575 27.3644 30.625 26.1875 30.625H8.4375C7.2606 30.625 6.13191 30.1575 5.29971 29.3253C4.46752 28.4931 4 27.3644 4 26.1875V4Z" stroke="black" stroke-width="6.65625" stroke-linecap="round" stroke-linejoin="round"/>
</svg>
