<svg width="28" height="29" viewBox="0 0 28 29" fill="none" xmlns="http://www.w3.org/2000/svg">
<g filter="url(#filter0_i_73_1545)">
<path d="M11.05 1.32999C12.582 -0.393006 14.664 -0.118006 15.996 1.32999L16.808 2.27099C17.09 2.57799 17.497 2.73599 17.911 2.70099L19.355 2.27099C21.324 1.84899 23.113 3.31799 23.113 5.59899V6.45899C23.155 6.92799 23.565 7.24599 23.988 7.45299L25.293 7.99799C27.18 8.91999 27.653 11.108 26.277 12.943L25.887 13.459C25.537 13.932 25.608 14.554 25.957 15.029L26.347 15.576C27.769 17.326 26.967 19.726 24.959 20.566L23.836 21.035C23.413 21.212 23.246 21.515 23.168 21.967L23.09 23.435C22.816 25.451 21.026 26.361 19.59 26.158L17.879 25.701C17.468 25.643 16.957 25.779 16.683 26.209L16.066 27.053C14.535 28.779 12.468 28.492 11.426 27.483L10.287 26.103C9.98903 25.815 9.61303 25.568 9.16303 25.738L7.44103 26.208C6.02003 26.41 4.34503 25.318 4.07803 23.907L3.87803 21.865C3.83842 21.6556 3.74957 21.4586 3.61882 21.2903C3.48806 21.122 3.31915 20.9872 3.12603 20.897L1.91803 20.482C0.101034 19.636 -0.506966 17.586 0.536034 15.875L1.21603 14.933C1.34978 14.7135 1.41776 14.4602 1.41191 14.2032C1.40607 13.9462 1.32663 13.6962 1.18303 13.483L0.676034 12.763C-0.761966 10.717 0.232034 8.42899 2.36203 7.74299L2.83203 7.59199C3.35003 7.42499 3.85203 6.99399 3.89403 6.45099L4.00003 5.13299C4.17003 2.99299 6.12203 1.76499 8.17603 2.38999L8.84103 2.59199C9.48103 2.84199 9.98303 2.62899 10.333 2.24799L11.052 1.33099L11.05 1.32999Z" fill="url(#paint0_linear_73_1545)"/>
<path d="M11.05 1.32999C12.582 -0.393006 14.664 -0.118006 15.996 1.32999L16.808 2.27099C17.09 2.57799 17.497 2.73599 17.911 2.70099L19.355 2.27099C21.324 1.84899 23.113 3.31799 23.113 5.59899V6.45899C23.155 6.92799 23.565 7.24599 23.988 7.45299L25.293 7.99799C27.18 8.91999 27.653 11.108 26.277 12.943L25.887 13.459C25.537 13.932 25.608 14.554 25.957 15.029L26.347 15.576C27.769 17.326 26.967 19.726 24.959 20.566L23.836 21.035C23.413 21.212 23.246 21.515 23.168 21.967L23.09 23.435C22.816 25.451 21.026 26.361 19.59 26.158L17.879 25.701C17.468 25.643 16.957 25.779 16.683 26.209L16.066 27.053C14.535 28.779 12.468 28.492 11.426 27.483L10.287 26.103C9.98903 25.815 9.61303 25.568 9.16303 25.738L7.44103 26.208C6.02003 26.41 4.34503 25.318 4.07803 23.907L3.87803 21.865C3.83842 21.6556 3.74957 21.4586 3.61882 21.2903C3.48806 21.122 3.31915 20.9872 3.12603 20.897L1.91803 20.482C0.101034 19.636 -0.506966 17.586 0.536034 15.875L1.21603 14.933C1.34978 14.7135 1.41776 14.4602 1.41191 14.2032C1.40607 13.9462 1.32663 13.6962 1.18303 13.483L0.676034 12.763C-0.761966 10.717 0.232034 8.42899 2.36203 7.74299L2.83203 7.59199C3.35003 7.42499 3.85203 6.99399 3.89403 6.45099L4.00003 5.13299C4.17003 2.99299 6.12203 1.76499 8.17603 2.38999L8.84103 2.59199C9.48103 2.84199 9.98303 2.62899 10.333 2.24799L11.052 1.33099L11.05 1.32999Z" fill="url(#paint1_radial_73_1545)"/>
<path d="M11.05 1.32999C12.582 -0.393006 14.664 -0.118006 15.996 1.32999L16.808 2.27099C17.09 2.57799 17.497 2.73599 17.911 2.70099L19.355 2.27099C21.324 1.84899 23.113 3.31799 23.113 5.59899V6.45899C23.155 6.92799 23.565 7.24599 23.988 7.45299L25.293 7.99799C27.18 8.91999 27.653 11.108 26.277 12.943L25.887 13.459C25.537 13.932 25.608 14.554 25.957 15.029L26.347 15.576C27.769 17.326 26.967 19.726 24.959 20.566L23.836 21.035C23.413 21.212 23.246 21.515 23.168 21.967L23.09 23.435C22.816 25.451 21.026 26.361 19.59 26.158L17.879 25.701C17.468 25.643 16.957 25.779 16.683 26.209L16.066 27.053C14.535 28.779 12.468 28.492 11.426 27.483L10.287 26.103C9.98903 25.815 9.61303 25.568 9.16303 25.738L7.44103 26.208C6.02003 26.41 4.34503 25.318 4.07803 23.907L3.87803 21.865C3.83842 21.6556 3.74957 21.4586 3.61882 21.2903C3.48806 21.122 3.31915 20.9872 3.12603 20.897L1.91803 20.482C0.101034 19.636 -0.506966 17.586 0.536034 15.875L1.21603 14.933C1.34978 14.7135 1.41776 14.4602 1.41191 14.2032C1.40607 13.9462 1.32663 13.6962 1.18303 13.483L0.676034 12.763C-0.761966 10.717 0.232034 8.42899 2.36203 7.74299L2.83203 7.59199C3.35003 7.42499 3.85203 6.99399 3.89403 6.45099L4.00003 5.13299C4.17003 2.99299 6.12203 1.76499 8.17603 2.38999L8.84103 2.59199C9.48103 2.84199 9.98303 2.62899 10.333 2.24799L11.052 1.33099L11.05 1.32999Z" fill="url(#paint2_radial_73_1545)"/>
<path d="M11.05 1.32999C12.582 -0.393006 14.664 -0.118006 15.996 1.32999L16.808 2.27099C17.09 2.57799 17.497 2.73599 17.911 2.70099L19.355 2.27099C21.324 1.84899 23.113 3.31799 23.113 5.59899V6.45899C23.155 6.92799 23.565 7.24599 23.988 7.45299L25.293 7.99799C27.18 8.91999 27.653 11.108 26.277 12.943L25.887 13.459C25.537 13.932 25.608 14.554 25.957 15.029L26.347 15.576C27.769 17.326 26.967 19.726 24.959 20.566L23.836 21.035C23.413 21.212 23.246 21.515 23.168 21.967L23.09 23.435C22.816 25.451 21.026 26.361 19.59 26.158L17.879 25.701C17.468 25.643 16.957 25.779 16.683 26.209L16.066 27.053C14.535 28.779 12.468 28.492 11.426 27.483L10.287 26.103C9.98903 25.815 9.61303 25.568 9.16303 25.738L7.44103 26.208C6.02003 26.41 4.34503 25.318 4.07803 23.907L3.87803 21.865C3.83842 21.6556 3.74957 21.4586 3.61882 21.2903C3.48806 21.122 3.31915 20.9872 3.12603 20.897L1.91803 20.482C0.101034 19.636 -0.506966 17.586 0.536034 15.875L1.21603 14.933C1.34978 14.7135 1.41776 14.4602 1.41191 14.2032C1.40607 13.9462 1.32663 13.6962 1.18303 13.483L0.676034 12.763C-0.761966 10.717 0.232034 8.42899 2.36203 7.74299L2.83203 7.59199C3.35003 7.42499 3.85203 6.99399 3.89403 6.45099L4.00003 5.13299C4.17003 2.99299 6.12203 1.76499 8.17603 2.38999L8.84103 2.59199C9.48103 2.84199 9.98303 2.62899 10.333 2.24799L11.052 1.33099L11.05 1.32999Z" fill="url(#paint3_radial_73_1545)"/>
<path d="M11.05 1.32999C12.582 -0.393006 14.664 -0.118006 15.996 1.32999L16.808 2.27099C17.09 2.57799 17.497 2.73599 17.911 2.70099L19.355 2.27099C21.324 1.84899 23.113 3.31799 23.113 5.59899V6.45899C23.155 6.92799 23.565 7.24599 23.988 7.45299L25.293 7.99799C27.18 8.91999 27.653 11.108 26.277 12.943L25.887 13.459C25.537 13.932 25.608 14.554 25.957 15.029L26.347 15.576C27.769 17.326 26.967 19.726 24.959 20.566L23.836 21.035C23.413 21.212 23.246 21.515 23.168 21.967L23.09 23.435C22.816 25.451 21.026 26.361 19.59 26.158L17.879 25.701C17.468 25.643 16.957 25.779 16.683 26.209L16.066 27.053C14.535 28.779 12.468 28.492 11.426 27.483L10.287 26.103C9.98903 25.815 9.61303 25.568 9.16303 25.738L7.44103 26.208C6.02003 26.41 4.34503 25.318 4.07803 23.907L3.87803 21.865C3.83842 21.6556 3.74957 21.4586 3.61882 21.2903C3.48806 21.122 3.31915 20.9872 3.12603 20.897L1.91803 20.482C0.101034 19.636 -0.506966 17.586 0.536034 15.875L1.21603 14.933C1.34978 14.7135 1.41776 14.4602 1.41191 14.2032C1.40607 13.9462 1.32663 13.6962 1.18303 13.483L0.676034 12.763C-0.761966 10.717 0.232034 8.42899 2.36203 7.74299L2.83203 7.59199C3.35003 7.42499 3.85203 6.99399 3.89403 6.45099L4.00003 5.13299C4.17003 2.99299 6.12203 1.76499 8.17603 2.38999L8.84103 2.59199C9.48103 2.84199 9.98303 2.62899 10.333 2.24799L11.052 1.33099L11.05 1.32999Z" fill="url(#paint4_radial_73_1545)"/>
<path d="M11.05 1.32999C12.582 -0.393006 14.664 -0.118006 15.996 1.32999L16.808 2.27099C17.09 2.57799 17.497 2.73599 17.911 2.70099L19.355 2.27099C21.324 1.84899 23.113 3.31799 23.113 5.59899V6.45899C23.155 6.92799 23.565 7.24599 23.988 7.45299L25.293 7.99799C27.18 8.91999 27.653 11.108 26.277 12.943L25.887 13.459C25.537 13.932 25.608 14.554 25.957 15.029L26.347 15.576C27.769 17.326 26.967 19.726 24.959 20.566L23.836 21.035C23.413 21.212 23.246 21.515 23.168 21.967L23.09 23.435C22.816 25.451 21.026 26.361 19.59 26.158L17.879 25.701C17.468 25.643 16.957 25.779 16.683 26.209L16.066 27.053C14.535 28.779 12.468 28.492 11.426 27.483L10.287 26.103C9.98903 25.815 9.61303 25.568 9.16303 25.738L7.44103 26.208C6.02003 26.41 4.34503 25.318 4.07803 23.907L3.87803 21.865C3.83842 21.6556 3.74957 21.4586 3.61882 21.2903C3.48806 21.122 3.31915 20.9872 3.12603 20.897L1.91803 20.482C0.101034 19.636 -0.506966 17.586 0.536034 15.875L1.21603 14.933C1.34978 14.7135 1.41776 14.4602 1.41191 14.2032C1.40607 13.9462 1.32663 13.6962 1.18303 13.483L0.676034 12.763C-0.761966 10.717 0.232034 8.42899 2.36203 7.74299L2.83203 7.59199C3.35003 7.42499 3.85203 6.99399 3.89403 6.45099L4.00003 5.13299C4.17003 2.99299 6.12203 1.76499 8.17603 2.38999L8.84103 2.59199C9.48103 2.84199 9.98303 2.62899 10.333 2.24799L11.052 1.33099L11.05 1.32999Z" fill="url(#paint5_radial_73_1545)"/>
<path d="M11.05 1.32999C12.582 -0.393006 14.664 -0.118006 15.996 1.32999L16.808 2.27099C17.09 2.57799 17.497 2.73599 17.911 2.70099L19.355 2.27099C21.324 1.84899 23.113 3.31799 23.113 5.59899V6.45899C23.155 6.92799 23.565 7.24599 23.988 7.45299L25.293 7.99799C27.18 8.91999 27.653 11.108 26.277 12.943L25.887 13.459C25.537 13.932 25.608 14.554 25.957 15.029L26.347 15.576C27.769 17.326 26.967 19.726 24.959 20.566L23.836 21.035C23.413 21.212 23.246 21.515 23.168 21.967L23.09 23.435C22.816 25.451 21.026 26.361 19.59 26.158L17.879 25.701C17.468 25.643 16.957 25.779 16.683 26.209L16.066 27.053C14.535 28.779 12.468 28.492 11.426 27.483L10.287 26.103C9.98903 25.815 9.61303 25.568 9.16303 25.738L7.44103 26.208C6.02003 26.41 4.34503 25.318 4.07803 23.907L3.87803 21.865C3.83842 21.6556 3.74957 21.4586 3.61882 21.2903C3.48806 21.122 3.31915 20.9872 3.12603 20.897L1.91803 20.482C0.101034 19.636 -0.506966 17.586 0.536034 15.875L1.21603 14.933C1.34978 14.7135 1.41776 14.4602 1.41191 14.2032C1.40607 13.9462 1.32663 13.6962 1.18303 13.483L0.676034 12.763C-0.761966 10.717 0.232034 8.42899 2.36203 7.74299L2.83203 7.59199C3.35003 7.42499 3.85203 6.99399 3.89403 6.45099L4.00003 5.13299C4.17003 2.99299 6.12203 1.76499 8.17603 2.38999L8.84103 2.59199C9.48103 2.84199 9.98303 2.62899 10.333 2.24799L11.052 1.33099L11.05 1.32999Z" fill="url(#paint6_radial_73_1545)"/>
<path d="M11.05 1.32999C12.582 -0.393006 14.664 -0.118006 15.996 1.32999L16.808 2.27099C17.09 2.57799 17.497 2.73599 17.911 2.70099L19.355 2.27099C21.324 1.84899 23.113 3.31799 23.113 5.59899V6.45899C23.155 6.92799 23.565 7.24599 23.988 7.45299L25.293 7.99799C27.18 8.91999 27.653 11.108 26.277 12.943L25.887 13.459C25.537 13.932 25.608 14.554 25.957 15.029L26.347 15.576C27.769 17.326 26.967 19.726 24.959 20.566L23.836 21.035C23.413 21.212 23.246 21.515 23.168 21.967L23.09 23.435C22.816 25.451 21.026 26.361 19.59 26.158L17.879 25.701C17.468 25.643 16.957 25.779 16.683 26.209L16.066 27.053C14.535 28.779 12.468 28.492 11.426 27.483L10.287 26.103C9.98903 25.815 9.61303 25.568 9.16303 25.738L7.44103 26.208C6.02003 26.41 4.34503 25.318 4.07803 23.907L3.87803 21.865C3.83842 21.6556 3.74957 21.4586 3.61882 21.2903C3.48806 21.122 3.31915 20.9872 3.12603 20.897L1.91803 20.482C0.101034 19.636 -0.506966 17.586 0.536034 15.875L1.21603 14.933C1.34978 14.7135 1.41776 14.4602 1.41191 14.2032C1.40607 13.9462 1.32663 13.6962 1.18303 13.483L0.676034 12.763C-0.761966 10.717 0.232034 8.42899 2.36203 7.74299L2.83203 7.59199C3.35003 7.42499 3.85203 6.99399 3.89403 6.45099L4.00003 5.13299C4.17003 2.99299 6.12203 1.76499 8.17603 2.38999L8.84103 2.59199C9.48103 2.84199 9.98303 2.62899 10.333 2.24799L11.052 1.33099L11.05 1.32999Z" fill="url(#paint7_radial_73_1545)"/>
<path d="M11.05 1.32999C12.582 -0.393006 14.664 -0.118006 15.996 1.32999L16.808 2.27099C17.09 2.57799 17.497 2.73599 17.911 2.70099L19.355 2.27099C21.324 1.84899 23.113 3.31799 23.113 5.59899V6.45899C23.155 6.92799 23.565 7.24599 23.988 7.45299L25.293 7.99799C27.18 8.91999 27.653 11.108 26.277 12.943L25.887 13.459C25.537 13.932 25.608 14.554 25.957 15.029L26.347 15.576C27.769 17.326 26.967 19.726 24.959 20.566L23.836 21.035C23.413 21.212 23.246 21.515 23.168 21.967L23.09 23.435C22.816 25.451 21.026 26.361 19.59 26.158L17.879 25.701C17.468 25.643 16.957 25.779 16.683 26.209L16.066 27.053C14.535 28.779 12.468 28.492 11.426 27.483L10.287 26.103C9.98903 25.815 9.61303 25.568 9.16303 25.738L7.44103 26.208C6.02003 26.41 4.34503 25.318 4.07803 23.907L3.87803 21.865C3.83842 21.6556 3.74957 21.4586 3.61882 21.2903C3.48806 21.122 3.31915 20.9872 3.12603 20.897L1.91803 20.482C0.101034 19.636 -0.506966 17.586 0.536034 15.875L1.21603 14.933C1.34978 14.7135 1.41776 14.4602 1.41191 14.2032C1.40607 13.9462 1.32663 13.6962 1.18303 13.483L0.676034 12.763C-0.761966 10.717 0.232034 8.42899 2.36203 7.74299L2.83203 7.59199C3.35003 7.42499 3.85203 6.99399 3.89403 6.45099L4.00003 5.13299C4.17003 2.99299 6.12203 1.76499 8.17603 2.38999L8.84103 2.59199C9.48103 2.84199 9.98303 2.62899 10.333 2.24799L11.052 1.33099L11.05 1.32999Z" fill="url(#paint8_radial_73_1545)"/>
<path d="M11.05 1.32999C12.582 -0.393006 14.664 -0.118006 15.996 1.32999L16.808 2.27099C17.09 2.57799 17.497 2.73599 17.911 2.70099L19.355 2.27099C21.324 1.84899 23.113 3.31799 23.113 5.59899V6.45899C23.155 6.92799 23.565 7.24599 23.988 7.45299L25.293 7.99799C27.18 8.91999 27.653 11.108 26.277 12.943L25.887 13.459C25.537 13.932 25.608 14.554 25.957 15.029L26.347 15.576C27.769 17.326 26.967 19.726 24.959 20.566L23.836 21.035C23.413 21.212 23.246 21.515 23.168 21.967L23.09 23.435C22.816 25.451 21.026 26.361 19.59 26.158L17.879 25.701C17.468 25.643 16.957 25.779 16.683 26.209L16.066 27.053C14.535 28.779 12.468 28.492 11.426 27.483L10.287 26.103C9.98903 25.815 9.61303 25.568 9.16303 25.738L7.44103 26.208C6.02003 26.41 4.34503 25.318 4.07803 23.907L3.87803 21.865C3.83842 21.6556 3.74957 21.4586 3.61882 21.2903C3.48806 21.122 3.31915 20.9872 3.12603 20.897L1.91803 20.482C0.101034 19.636 -0.506966 17.586 0.536034 15.875L1.21603 14.933C1.34978 14.7135 1.41776 14.4602 1.41191 14.2032C1.40607 13.9462 1.32663 13.6962 1.18303 13.483L0.676034 12.763C-0.761966 10.717 0.232034 8.42899 2.36203 7.74299L2.83203 7.59199C3.35003 7.42499 3.85203 6.99399 3.89403 6.45099L4.00003 5.13299C4.17003 2.99299 6.12203 1.76499 8.17603 2.38999L8.84103 2.59199C9.48103 2.84199 9.98303 2.62899 10.333 2.24799L11.052 1.33099L11.05 1.32999Z" fill="url(#paint9_radial_73_1545)"/>
</g>
<g filter="url(#filter1_i_73_1545)">
<path d="M13.534 24.934C19.468 24.934 24.277 20.124 24.277 14.191C24.277 8.258 19.467 3.448 13.534 3.448C7.60102 3.448 2.79102 8.258 2.79102 14.191C2.79102 20.124 7.60102 24.934 13.534 24.934V24.934Z" fill="url(#paint10_radial_73_1545)"/>
</g>
<defs>
<filter id="filter0_i_73_1545" x="0.00012207" y="-0.0613586" width="27.269" height="28.3557" filterUnits="userSpaceOnUse" color-interpolation-filters="sRGB">
<feFlood flood-opacity="0" result="BackgroundImageFix"/>
<feBlend mode="normal" in="SourceGraphic" in2="BackgroundImageFix" result="shape"/>
<feColorMatrix in="SourceAlpha" type="matrix" values="0 0 0 0 0 0 0 0 0 0 0 0 0 0 0 0 0 0 127 0" result="hardAlpha"/>
<feOffset dx="0.2" dy="-0.2"/>
<feGaussianBlur stdDeviation="0.375"/>
<feComposite in2="hardAlpha" operator="arithmetic" k2="-1" k3="1"/>
<feColorMatrix type="matrix" values="0 0 0 0 0.839216 0 0 0 0 0.45098 0 0 0 0 0.211765 0 0 0 1 0"/>
<feBlend mode="normal" in2="shape" result="effect1_innerShadow_73_1545"/>
</filter>
<filter id="filter1_i_73_1545" x="2.49102" y="3.448" width="21.786" height="21.786" filterUnits="userSpaceOnUse" color-interpolation-filters="sRGB">
<feFlood flood-opacity="0" result="BackgroundImageFix"/>
<feBlend mode="normal" in="SourceGraphic" in2="BackgroundImageFix" result="shape"/>
<feColorMatrix in="SourceAlpha" type="matrix" values="0 0 0 0 0 0 0 0 0 0 0 0 0 0 0 0 0 0 127 0" result="hardAlpha"/>
<feOffset dx="-0.3" dy="0.3"/>
<feGaussianBlur stdDeviation="0.15"/>
<feComposite in2="hardAlpha" operator="arithmetic" k2="-1" k3="1"/>
<feColorMatrix type="matrix" values="0 0 0 0 0.921569 0 0 0 0 0.47451 0 0 0 0 0.133333 0 0 0 1 0"/>
<feBlend mode="normal" in2="shape" result="effect1_innerShadow_73_1545"/>
</filter>
<linearGradient id="paint0_linear_73_1545" x1="21.878" y1="4.86699" x2="6.52803" y2="24.451" gradientUnits="userSpaceOnUse">
<stop stop-color="#FC8B23"/>
<stop offset="1" stop-color="#E67639"/>
</linearGradient>
<radialGradient id="paint1_radial_73_1545" cx="0" cy="0" r="1" gradientUnits="userSpaceOnUse" gradientTransform="translate(16.1181 1.43721) rotate(138.155) scale(3.77864 3.33393)">
<stop offset="0.3" stop-color="#FFA13A"/>
<stop offset="1" stop-color="#FFA13A" stop-opacity="0"/>
</radialGradient>
<radialGradient id="paint2_radial_73_1545" cx="0" cy="0" r="1" gradientUnits="userSpaceOnUse" gradientTransform="translate(6.28803 0.243994) rotate(67.8105) scale(6.00715 5.30017)">
<stop offset="0.3" stop-color="#FF942A"/>
<stop offset="1" stop-color="#FF942A" stop-opacity="0"/>
</radialGradient>
<radialGradient id="paint3_radial_73_1545" cx="0" cy="0" r="1" gradientUnits="userSpaceOnUse" gradientTransform="translate(22.42 5.84999) rotate(-164.745) scale(2.39513 3.31637)">
<stop offset="0.3" stop-color="#FFA13D"/>
<stop offset="1" stop-color="#FFA13D" stop-opacity="0"/>
</radialGradient>
<radialGradient id="paint4_radial_73_1545" cx="0" cy="0" r="1" gradientUnits="userSpaceOnUse" gradientTransform="translate(27.252 9.33599) rotate(154.195) scale(4.24668 3.13649)">
<stop offset="0.3" stop-color="#FFA13D"/>
<stop offset="1" stop-color="#FFA13D" stop-opacity="0"/>
</radialGradient>
<radialGradient id="paint5_radial_73_1545" cx="0" cy="0" r="1" gradientUnits="userSpaceOnUse" gradientTransform="translate(28.177 16.52) rotate(-173.379) scale(4.73709 2.66952)">
<stop offset="0.3" stop-color="#FFA13D"/>
<stop offset="1" stop-color="#FFA13D" stop-opacity="0"/>
</radialGradient>
<radialGradient id="paint6_radial_73_1545" cx="0" cy="0" r="1" gradientUnits="userSpaceOnUse" gradientTransform="translate(23.9328 22.024) rotate(-43.964) scale(4.29693 4.13959)">
<stop stop-color="#E0762A"/>
<stop offset="1" stop-color="#E0762A" stop-opacity="0"/>
</radialGradient>
<radialGradient id="paint7_radial_73_1545" cx="0" cy="0" r="1" gradientUnits="userSpaceOnUse" gradientTransform="translate(4.01903 21.015) rotate(-127.747) scale(3.29424 3.1736)">
<stop stop-color="#E0762A"/>
<stop offset="1" stop-color="#E0762A" stop-opacity="0"/>
</radialGradient>
<radialGradient id="paint8_radial_73_1545" cx="0" cy="0" r="1" gradientUnits="userSpaceOnUse" gradientTransform="translate(-0.476966 9.88199) rotate(25.2776) scale(3.34528 4.04325)">
<stop stop-color="#F0851D"/>
<stop offset="1" stop-color="#F0851D" stop-opacity="0"/>
</radialGradient>
<radialGradient id="paint9_radial_73_1545" cx="0" cy="0" r="1" gradientUnits="userSpaceOnUse" gradientTransform="translate(19.4921 26.7943) rotate(-142.487) scale(3.90025 3.67954)">
<stop offset="0.337" stop-color="#E3745B"/>
<stop offset="1" stop-color="#E3745B" stop-opacity="0"/>
</radialGradient>
<radialGradient id="paint10_radial_73_1545" cx="0" cy="0" r="1" gradientUnits="userSpaceOnUse" gradientTransform="translate(19.6318 7.96715) rotate(117.739) scale(19.1699 23.673)">
<stop offset="0.172" stop-color="#FFD13D"/>
<stop offset="1" stop-color="#D89A29"/>
</radialGradient>
</defs>
</svg>
