<svg width="128" height="120" viewBox="0 0 128 120" fill="none" xmlns="http://www.w3.org/2000/svg">
<path d="M103.44 21.85C101.29 16.77 96.65 10.18 91.86 7.25004C80.72 0.400036 66.56 -0.919964 53.93 1.50004C34.09 5.30004 15.5 18.13 6.19 36.21C-0.400002 49.01 -1.76 68.52 7.02 80.8C12.75 88.81 24.12 91.84 33.14 88.08C39.27 85.53 43.07 79.85 48.37 76.13C55.25 71.29 62.71 72.66 70.69 72.35C93.6 71.48 112.33 42.96 103.44 21.85V21.85ZM69.75 54.89C67.93 55.59 65.54 56 63.58 55.71C61.6 55.4 59.5 53.95 58.45 52.23C54.8 46.31 60.86 39.46 66.46 37.97C69.24 37.23 73.32 37.69 75.53 39.6C81.26 44.55 75.01 52.85 69.75 54.89V54.89Z" fill="#F79329"/>
<path d="M43.47 15.59C45.04 14.33 47.06 13.54 48.95 13.38C52.4 13.08 54.84 16.15 54.7 19.55C54.51 23.85 49.79 25.94 45.85 25.77C42.79 25.64 40.27 22.88 40.78 19.9C41.09 18.16 42.11 16.7 43.47 15.59Z" fill="#ED6C30"/>
<path d="M16.49 47.68C17.68 42.89 23.37 39.86 27.42 43.28C31.28 46.53 29.47 52.97 25.38 55.33C22.66 56.9 18.62 55.85 17.05 52.94C16.18 51.33 16.05 49.44 16.49 47.68Z" fill="#BDCF46"/>
<path d="M28.73 64.02C31 68.32 29.49 74.95 23.96 75.41C18.43 75.87 15.34 69.36 16.77 64.6C18.2 59.86 24.06 59.08 27.36 62.2C27.92 62.73 28.38 63.34 28.73 64.02Z" fill="#006CA2"/>
<path d="M38.28 33.4601C36.79 36.2001 33.32 38.5901 30.11 38.1901C26.08 37.6901 24.5 32.8901 26.25 29.4601C28.65 24.7601 36.17 22.8801 38.69 28.6601C39.38 30.2501 39.11 31.9501 38.28 33.4601Z" fill="#FCC21B"/>
<path d="M73.56 82.64C68.51 82.44 63.14 84.74 59.86 89.01C56.46 93.43 56.56 99.09 56.42 104.39C56.34 107.27 56.82 111.29 54.73 113.63C53.79 114.68 52.8 114.9 51.52 115.06C51.02 115.12 48.58 114.74 49.5 116.14C51.25 118.81 57.76 119.49 60.55 119.61C68.05 119.95 75.43 116.63 80.38 111.02C80.89 110.43 81.38 109.82 81.84 109.19C85.53 104.11 87.69 96.91 85.32 90.86C83.18 85.41 78.52 82.83 73.56 82.64V82.64Z" fill="white"/>
<mask id="mask0_702_1670" style="mask-type:luminance" maskUnits="userSpaceOnUse" x="49" y="82" width="38" height="38">
<path d="M73.56 82.64C68.51 82.44 63.14 84.74 59.86 89.01C56.46 93.43 56.56 99.09 56.42 104.39C56.34 107.27 56.82 111.29 54.73 113.63C53.79 114.68 52.8 114.9 51.52 115.06C51.02 115.12 48.58 114.74 49.5 116.14C51.25 118.81 57.76 119.49 60.55 119.61C68.05 119.95 75.43 116.63 80.38 111.02C80.89 110.43 81.38 109.82 81.84 109.19C85.53 104.11 87.69 96.91 85.32 90.86C83.18 85.41 78.52 82.83 73.56 82.64V82.64Z" fill="white"/>
</mask>
<g mask="url(#mask0_702_1670)">
<path d="M65.05 97.6299C65.16 97.8699 65.26 98.1799 65.31 98.5699C65.62 100.95 67.44 101.47 69.6 101.47C71.79 101.47 74.52 100.99 74.52 103.93C74.51 105.19 73.91 106.12 75.17 106.89C77.07 108.05 80.71 107.78 82.55 106.57C83.69 105.82 85.29 105.15 84.57 107.28C84.15 108.51 83.33 109.64 82.73 110.8C82.07 112.07 81.24 113.08 80.24 114.1C79.51 114.85 79.01 115.75 78.17 116.39C76.02 118.02 73.22 118.53 70.71 119.35C67.35 120.45 64.14 122.41 60.54 121.4C56.73 120.33 52.58 120.76 48.83 119.53C46.98 118.92 45.83 117.8 46.11 115.81C46.36 114.1 47.53 113.46 49.09 113.12C50.85 112.73 52.29 112.26 53.1 110.5C53.8 109.01 53.32 106.84 53.22 105.26C53.08 103.11 52.84 100.84 53.39 98.7299C53.85 96.9899 54.36 95.2499 55.12 93.6099C55.47 92.8399 55.84 91.8999 56.4 91.2599C57.27 90.2599 58.34 89.8099 59.52 89.2799C59.89 90.2299 59.1 91.7399 58.96 92.6999C58.73 94.3499 58.78 96.1199 60.46 96.7899C62.09 97.4099 64.26 95.9699 65.05 97.6299Z" fill="#ED6C30"/>
</g>
<path d="M91.93 54.63C97.6 48.11 101.78 40.32 106.89 33.34C110.03 29.06 112.92 24.54 115.84 20.13C117.69 17.34 120.35 12.45 124.27 12.52C124.95 12.53 125.57 12.82 126.12 13.21C127.33 14.07 127.32 16.14 126.92 17.42C125.33 22.57 122.35 27.5 119.85 32.26C118.9 34.08 117.93 35.9 116.92 37.69C113.97 42.94 110.89 48.12 108.17 53.5C107.11 55.6 106.11 57.72 105.2 59.88C104.63 61.22 103.75 62.36 103.4 63.76C103.04 65.2 99.79 61.15 99.59 60.83C98.85 59.6 98.17 58.95 96.85 58.51C95.9 58.2 90.81 57.47 91.22 55.85C91.33 55.43 91.59 55.02 91.93 54.63Z" fill="#855C52"/>
<path d="M102.54 62.36C101.58 60.35 99.72 59.22 98.09 58.22C97.67 57.96 97.25 57.71 96.87 57.45C94.29 55.68 92.08 55.25 90.3 56.1C87.63 57.38 85.74 60.76 84.21 63.48C83.79 64.22 83.41 64.9 83.06 65.46C80.19 69.93 77.42 73.36 72.52 76.66L72.1 76.93C70.99 77.64 69.47 78.62 69.35 80.39C69.3 81.14 69.51 82.27 70.82 83.38C72.25 84.59 73.82 85.33 75.34 86.04C75.88 86.29 76.43 86.55 76.96 86.83C78.71 87.75 80.3 88.96 81.99 90.25L82.99 91C83.25 91.19 83.51 91.45 83.79 91.7C84.57 92.43 85.54 93.35 86.8 93.7C87.23 93.82 87.61 93.88 87.95 93.88C89.31 93.88 89.99 93.04 90.36 92.59L90.51 92.41C91.97 90.7 92.69 88.41 93.32 86.39C93.62 85.41 93.91 84.48 94.25 83.7C94.79 82.47 95.3 81.23 95.81 79.99C96.93 77.25 97.99 74.66 99.36 72.19C99.68 71.6 100.15 70.99 100.65 70.35C102.12 68.41 104.15 65.75 102.54 62.36V62.36Z" fill="#78A3AD"/>
<mask id="mask1_702_1670" style="mask-type:luminance" maskUnits="userSpaceOnUse" x="69" y="55" width="35" height="39">
<path d="M102.54 62.36C101.58 60.35 99.72 59.22 98.09 58.22C97.67 57.96 97.25 57.71 96.87 57.45C94.29 55.68 92.08 55.25 90.3 56.1C87.63 57.38 85.74 60.76 84.21 63.48C83.79 64.22 83.41 64.9 83.06 65.46C80.19 69.93 77.42 73.36 72.52 76.66L72.1 76.93C70.99 77.64 69.47 78.62 69.35 80.39C69.3 81.14 69.51 82.27 70.82 83.38C72.25 84.59 73.82 85.33 75.34 86.04C75.88 86.29 76.43 86.55 76.96 86.83C78.71 87.75 80.3 88.96 81.99 90.25L82.99 91C83.25 91.19 83.51 91.45 83.79 91.7C84.57 92.43 85.54 93.35 86.8 93.7C87.23 93.82 87.61 93.88 87.95 93.88C89.31 93.88 89.99 93.04 90.36 92.59L90.51 92.41C91.97 90.7 92.69 88.41 93.32 86.39C93.62 85.41 93.91 84.48 94.25 83.7C94.79 82.47 95.3 81.23 95.81 79.99C96.93 77.25 97.99 74.66 99.36 72.19C99.68 71.6 100.15 70.99 100.65 70.35C102.12 68.41 104.15 65.75 102.54 62.36V62.36Z" fill="white"/>
</mask>
<g mask="url(#mask1_702_1670)">
<path d="M93.71 92.86C92.99 92.86 92.29 92.51 91.84 91.87C91.31 91.08 90.99 90.3 90.7 89.61C90.44 88.98 90.22 88.44 89.89 88.01C86.82 84.05 83.1 81.31 77.04 78.54C75.23 77.71 73.58 77.3 72.18 77.3C70.93 77.3 69.92 76.29 69.92 75.05C69.92 73.81 70.93 72.8 72.18 72.8C74.23 72.8 76.5 73.36 78.91 74.45C83.62 76.6 89.04 79.57 93.45 85.26C94.16 86.17 94.54 87.09 94.87 87.91C95.1 88.47 95.3 88.95 95.58 89.36C96.28 90.39 96 91.79 94.98 92.48C94.58 92.73 94.14 92.86 93.71 92.86Z" fill="#2F2F2F"/>
</g>
</svg>
