<svg width="16" height="37" viewBox="0 0 16 37" fill="none" xmlns="http://www.w3.org/2000/svg">
<path d="M8 2.66594C8.70705 2.66594 9.38514 2.94681 9.8851 3.44677C10.3851 3.94673 10.6659 4.62483 10.6659 5.33188C10.6659 6.03893 10.3851 6.71702 9.8851 7.21698C9.38514 7.71694 8.70705 7.99782 8 7.99782C7.29295 7.99782 6.61486 7.71694 6.1149 7.21698C5.61494 6.71702 5.33406 6.03893 5.33406 5.33188C5.33406 4.62483 5.61494 3.94673 6.1149 3.44677C6.61486 2.94681 7.29295 2.66594 8 2.66594ZM8 0C6.5859 0 5.22971 0.56175 4.22979 1.56167C3.22987 2.56159 2.66812 3.91778 2.66812 5.33188C2.66812 6.74598 3.22987 8.10216 4.22979 9.10208C5.22971 10.102 6.5859 10.6638 8 10.6638C9.4141 10.6638 10.7703 10.102 11.7702 9.10208C12.7701 8.10216 13.3319 6.74598 13.3319 5.33188C13.3319 3.91778 12.7701 2.56159 11.7702 1.56167C10.7703 0.56175 9.4141 0 8 0ZM11.2791 11.9701H4.7209C3.46942 11.9701 2.26919 12.4672 1.38426 13.3521C0.499334 14.2371 0.00218487 15.4373 0.00218487 16.6888V23.7269C-0.0269478 24.4677 0.236203 25.1902 0.734904 25.7388C1.2336 26.2874 1.92791 26.618 2.66812 26.6594V32.871C2.66812 33.7195 3.00517 34.5332 3.60513 35.1331C4.20508 35.7331 5.01879 36.0701 5.86725 36.0701H10.1328C10.562 36.0704 10.9869 35.9842 11.3821 35.8168C11.7774 35.6494 12.1349 35.4042 12.4334 35.0958C12.7319 34.7873 12.9653 34.4219 13.1197 34.0214C13.274 33.6209 13.3462 33.1934 13.3319 32.7644V26.6594C14.0721 26.618 14.7664 26.2874 15.2651 25.7388C15.7638 25.1902 16.0269 24.4677 15.9978 23.7269V16.6888C15.9978 15.4373 15.5007 14.2371 14.6157 13.3521C13.7308 12.4672 12.5306 11.9701 11.2791 11.9701ZM2.66812 23.9934V16.6888C2.66454 16.4182 2.71519 16.1497 2.81708 15.899C2.91897 15.6483 3.07004 15.4206 3.26138 15.2293C3.45272 15.0379 3.68044 14.8869 3.93111 14.785C4.18179 14.6831 4.45033 14.6324 4.7209 14.636H11.2791C11.5497 14.6324 11.8182 14.6831 12.0689 14.785C12.3196 14.8869 12.5473 15.0379 12.7386 15.2293C12.93 15.4206 13.081 15.6483 13.1829 15.899C13.2848 16.1497 13.3355 16.4182 13.3319 16.6888V23.9934H10.6659V32.8177C10.6659 32.9591 10.6098 33.0947 10.5098 33.1947C10.4098 33.2947 10.2742 33.3509 10.1328 33.3509H5.86725C5.72584 33.3509 5.59022 33.2947 5.49023 33.1947C5.39024 33.0947 5.33406 32.9591 5.33406 32.8177V23.9934H2.66812Z" fill="black"/>
</svg>
