<svg width="24" height="27" viewBox="0 0 24 27" fill="none" xmlns="http://www.w3.org/2000/svg">
<path d="M20 18.1333C19.05 18.1333 18.1733 18.4667 17.4867 19.0233L10.58 14.0267C10.6956 13.3919 10.6956 12.7414 10.58 12.1067L17.4867 7.11C18.1733 7.66667 19.05 8 20 8C22.2067 8 24 6.20667 24 4C24 1.79333 22.2067 0 20 0C17.7933 0 16 1.79333 16 4C16 4.38667 16.0533 4.75667 16.1567 5.11L9.59667 9.86C8.62333 8.57 7.07667 7.73333 5.33333 7.73333C2.38667 7.73333 0 10.12 0 13.0667C0 16.0133 2.38667 18.4 5.33333 18.4C7.07667 18.4 8.62333 17.5633 9.59667 16.2733L16.1567 21.0233C16.0533 21.3767 16 21.75 16 22.1333C16 24.34 17.7933 26.1333 20 26.1333C22.2067 26.1333 24 24.34 24 22.1333C24 19.9267 22.2067 18.1333 20 18.1333ZM20 2.26667C20.9567 2.26667 21.7333 3.04333 21.7333 4C21.7333 4.95667 20.9567 5.73333 20 5.73333C19.0433 5.73333 18.2667 4.95667 18.2667 4C18.2667 3.04333 19.0433 2.26667 20 2.26667ZM5.33333 16C3.71667 16 2.4 14.6833 2.4 13.0667C2.4 11.45 3.71667 10.1333 5.33333 10.1333C6.95 10.1333 8.26667 11.45 8.26667 13.0667C8.26667 14.6833 6.95 16 5.33333 16ZM20 23.8667C19.0433 23.8667 18.2667 23.09 18.2667 22.1333C18.2667 21.1767 19.0433 20.4 20 20.4C20.9567 20.4 21.7333 21.1767 21.7333 22.1333C21.7333 23.09 20.9567 23.8667 20 23.8667Z" fill="black"/>
</svg>
