<svg width="48" height="48" viewBox="0 0 48 48" fill="none" xmlns="http://www.w3.org/2000/svg">
<path d="M8.57143 6.85714C8.11677 6.85714 7.68074 7.03776 7.35925 7.35925C7.03776 7.68074 6.85714 8.11677 6.85714 8.57143C6.85714 9.02609 7.03776 9.46212 7.35925 9.78361C7.68074 10.1051 8.11677 10.2857 8.57143 10.2857H39.4286C39.8832 10.2857 40.3193 10.1051 40.6408 9.78361C40.9622 9.46212 41.1429 9.02609 41.1429 8.57143C41.1429 8.11677 40.9622 7.68074 40.6408 7.35925C40.3193 7.03776 39.8832 6.85714 39.4286 6.85714H8.57143ZM12 27.4286C13.364 27.4286 14.6721 26.8867 15.6365 25.9223C16.601 24.9578 17.1429 23.6497 17.1429 22.2857C17.1429 20.9217 16.601 19.6136 15.6365 18.6492C14.6721 17.6847 13.364 17.1429 12 17.1429C10.636 17.1429 9.32792 17.6847 8.36345 18.6492C7.39898 19.6136 6.85714 20.9217 6.85714 22.2857C6.85714 23.6497 7.39898 24.9578 8.36345 25.9223C9.32792 26.8867 10.636 27.4286 12 27.4286ZM12 24C11.5453 24 11.1093 23.8194 10.7878 23.4979C10.4663 23.1764 10.2857 22.7404 10.2857 22.2857C10.2857 21.8311 10.4663 21.395 10.7878 21.0735C11.1093 20.752 11.5453 20.5714 12 20.5714C12.4547 20.5714 12.8907 20.752 13.2122 21.0735C13.5337 21.395 13.7143 21.8311 13.7143 22.2857C13.7143 22.7404 13.5337 23.1764 13.2122 23.4979C12.8907 23.8194 12.4547 24 12 24ZM17.1429 36C17.1429 37.364 16.601 38.6721 15.6365 39.6366C14.6721 40.601 13.364 41.1429 12 41.1429C10.636 41.1429 9.32792 40.601 8.36345 39.6366C7.39898 38.6721 6.85714 37.364 6.85714 36C6.85714 34.636 7.39898 33.3279 8.36345 32.3634C9.32792 31.399 10.636 30.8571 12 30.8571C13.364 30.8571 14.6721 31.399 15.6365 32.3634C16.601 33.3279 17.1429 34.636 17.1429 36ZM13.7143 36C13.7143 35.5453 13.5337 35.1093 13.2122 34.7878C12.8907 34.4663 12.4547 34.2857 12 34.2857C11.5453 34.2857 11.1093 34.4663 10.7878 34.7878C10.4663 35.1093 10.2857 35.5453 10.2857 36C10.2857 36.4547 10.4663 36.8907 10.7878 37.2122C11.1093 37.5337 11.5453 37.7143 12 37.7143C12.4547 37.7143 12.8907 37.5337 13.2122 37.2122C13.5337 36.8907 13.7143 36.4547 13.7143 36ZM20.5714 22.2857C20.5714 21.8311 20.752 21.395 21.0735 21.0735C21.395 20.752 21.8311 20.5714 22.2857 20.5714H39.4286C39.8832 20.5714 40.3193 20.752 40.6408 21.0735C40.9622 21.395 41.1429 21.8311 41.1429 22.2857C41.1429 22.7404 40.9622 23.1764 40.6408 23.4979C40.3193 23.8194 39.8832 24 39.4286 24H22.2857C21.8311 24 21.395 23.8194 21.0735 23.4979C20.752 23.1764 20.5714 22.7404 20.5714 22.2857ZM22.2857 34.2857C21.8311 34.2857 21.395 34.4663 21.0735 34.7878C20.752 35.1093 20.5714 35.5453 20.5714 36C20.5714 36.4547 20.752 36.8907 21.0735 37.2122C21.395 37.5337 21.8311 37.7143 22.2857 37.7143H39.4286C39.8832 37.7143 40.3193 37.5337 40.6408 37.2122C40.9622 36.8907 41.1429 36.4547 41.1429 36C41.1429 35.5453 40.9622 35.1093 40.6408 34.7878C40.3193 34.4663 39.8832 34.2857 39.4286 34.2857H22.2857ZM10.2857 0C7.55777 0 4.94156 1.08367 3.01262 3.01262C1.08367 4.94156 0 7.55777 0 10.2857V37.7143C0 40.4422 1.08367 43.0584 3.01262 44.9874C4.94156 46.9163 7.55777 48 10.2857 48H37.7143C40.4422 48 43.0584 46.9163 44.9874 44.9874C46.9163 43.0584 48 40.4422 48 37.7143V10.2857C48 7.55777 46.9163 4.94156 44.9874 3.01262C43.0584 1.08367 40.4422 0 37.7143 0H10.2857ZM3.42857 10.2857C3.42857 8.46709 4.15102 6.72295 5.43698 5.43698C6.72295 4.15102 8.46709 3.42857 10.2857 3.42857H37.7143C39.5329 3.42857 41.2771 4.15102 42.563 5.43698C43.849 6.72295 44.5714 8.46709 44.5714 10.2857V37.7143C44.5714 39.5329 43.849 41.2771 42.563 42.563C41.2771 43.849 39.5329 44.5714 37.7143 44.5714H10.2857C8.46709 44.5714 6.72295 43.849 5.43698 42.563C4.15102 41.2771 3.42857 39.5329 3.42857 37.7143V10.2857Z" fill="white"/>
</svg>
