<svg width="28" height="28" viewBox="0 0 28 28" fill="none" xmlns="http://www.w3.org/2000/svg">
<circle cx="14" cy="14" r="14" fill="white"/>
<path d="M26 14C26 7.37262 20.6274 2 14 2C7.37262 2 2 7.37253 2 14C2 19.9895 6.38825 24.954 12.125 25.8542V17.4688H9.07812V14H12.125V11.3563C12.125 8.34875 13.9166 6.6875 16.6575 6.6875C17.9705 6.6875 19.3438 6.92188 19.3438 6.92188V9.875H17.8306C16.3398 9.875 15.875 10.8 15.875 11.7491V14H19.2031L18.6711 17.4688H15.875V25.8542C21.6118 24.954 26 19.9896 26 14Z" fill="#1877F2"/>
</svg>
