<svg width="77" height="77" viewBox="0 0 77 77" fill="none" xmlns="http://www.w3.org/2000/svg">
<path d="M45.5145 5.35465C52.3221 5.35465 57.1591 5.36179 60.8288 5.85442C64.4165 6.33634 66.4869 7.24306 67.9969 8.75307C69.5069 10.2631 70.4137 12.3335 70.8956 15.9247C71.3882 19.5945 71.3953 24.4279 71.3953 31.2355C71.3953 31.9455 71.6774 32.6265 72.1795 33.1286C72.6816 33.6307 73.3626 33.9128 74.0727 33.9128C74.7827 33.9128 75.4637 33.6307 75.9658 33.1286C76.4679 32.6265 76.75 31.9455 76.75 31.2355V31.0356C76.75 24.4743 76.75 19.2767 76.2038 15.2108C75.6398 11.027 74.4546 7.6393 71.7845 4.96555C69.1107 2.29536 65.723 1.1102 61.5392 0.546174C57.4697 0 52.2757 0 45.7144 0H45.5145C44.8045 0 44.1235 0.282075 43.6214 0.784171C43.1193 1.28627 42.8372 1.96725 42.8372 2.67733C42.8372 3.3874 43.1193 4.06839 43.6214 4.57048C44.1235 5.07258 44.8045 5.35465 45.5145 5.35465ZM31.0356 0H31.2355C31.9455 0 32.6265 0.282075 33.1286 0.784171C33.6307 1.28627 33.9128 1.96725 33.9128 2.67733C33.9128 3.3874 33.6307 4.06839 33.1286 4.57048C32.6265 5.07258 31.9455 5.35465 31.2355 5.35465C24.4279 5.35465 19.5945 5.36179 15.9212 5.85442C12.3335 6.33634 10.2631 7.24306 8.75307 8.75307C7.24306 10.2631 6.33634 12.3335 5.85442 15.9247C5.36179 19.5945 5.35465 24.4279 5.35465 31.2355C5.35465 31.9455 5.07258 32.6265 4.57048 33.1286C4.06839 33.6307 3.3874 33.9128 2.67733 33.9128C1.96725 33.9128 1.28627 33.6307 0.784171 33.1286C0.282075 32.6265 0 31.9455 0 31.2355V31.0356C0 24.4743 0 19.2767 0.546174 15.2108C1.1102 11.027 2.29536 7.6393 4.96555 4.96555C7.6393 2.29536 11.027 1.1102 15.2108 0.546174C19.2803 0 24.4743 0 31.0356 0Z" fill="url(#paint0_linear_702_1858)"/>
<path d="M14.8813 14.8813C13 16.7625 13 19.7933 13 25.8512C13 29.8886 13 31.9091 14.253 33.1656C15.5095 34.4186 17.5336 34.4186 21.5674 34.4186H25.8512C29.8886 34.4186 31.9091 34.4186 33.1656 33.1656C34.4186 31.9055 34.4186 29.885 34.4186 25.8512V21.5674C34.4186 17.53 34.4186 15.5095 33.1656 14.253C31.9055 13 29.885 13 25.8512 13C19.7933 13 16.7625 13 14.8813 14.8813Z" fill="#42B462"/>
<path d="M42 21.5674C42 17.53 42 15.5095 43.253 14.253C44.5131 13 46.5336 13 50.5674 13C56.6253 13 59.6561 13 61.5373 14.8813C63.4186 16.7625 63.4186 19.7933 63.4186 25.8512C63.4186 29.8886 63.4186 31.9091 62.162 33.1656C60.9126 34.4186 58.8886 34.4186 54.8512 34.4186H50.5674C46.53 34.4186 44.5095 34.4186 43.253 33.1656C42 31.9055 42 29.885 42 25.8512V21.5674Z" fill="#1976D2"/>
<path d="M14.8813 61.5373C13 59.6561 13 56.6253 13 50.5674C13 46.53 13 44.5095 14.253 43.253C15.5095 42 17.5336 42 21.5674 42H25.8512C29.8886 42 31.9091 42 33.1656 43.253C34.4186 44.5095 34.4186 46.53 34.4186 50.5674V54.8512C34.4186 58.8886 34.4186 60.9091 33.1656 62.162C31.9055 63.4186 29.885 63.4186 25.8512 63.4186C19.7933 63.4186 16.7625 63.4186 14.8813 61.5373Z" fill="#1976D2"/>
<path d="M43.253 62.162C42 60.9126 42 58.8886 42 54.8512V50.5674C42 46.53 42 44.5095 43.253 43.253C44.5131 42 46.5336 42 50.5674 42H54.8512C58.8886 42 60.9091 42 62.162 43.253C63.4186 44.5095 63.4186 46.53 63.4186 50.5674C63.4186 56.6253 63.4186 59.6561 61.5373 61.5373C59.6561 63.4186 56.6253 63.4186 50.5674 63.4186C46.53 63.4186 44.5095 63.4186 43.253 62.162Z" fill="#FFC738"/>
<path d="M74.0727 42.8372C74.7827 42.8372 75.4637 43.1193 75.9658 43.6214C76.4679 44.1235 76.75 44.8045 76.75 45.5145V45.7145C76.75 52.2757 76.75 57.4733 76.2038 61.5392C75.6398 65.723 74.4546 69.1107 71.7845 71.7845C69.1107 74.4546 65.723 75.6398 61.5392 76.2038C57.4697 76.75 52.2757 76.75 45.7144 76.75H45.5145C44.8045 76.75 44.1235 76.4679 43.6214 75.9658C43.1193 75.4637 42.8372 74.7828 42.8372 74.0727C42.8372 73.3626 43.1193 72.6816 43.6214 72.1795C44.1235 71.6774 44.8045 71.3954 45.5145 71.3954C52.3221 71.3954 57.1591 71.3882 60.8288 70.8956C64.4165 70.4137 66.4869 69.507 67.9969 67.9969C69.5069 66.4869 70.4137 64.4165 70.8956 60.8253C71.3882 57.1591 71.3953 52.3221 71.3953 45.5145C71.3953 44.8045 71.6774 44.1235 72.1795 43.6214C72.6816 43.1193 73.3626 42.8372 74.0727 42.8372ZM5.35465 45.5145C5.35465 44.8045 5.07258 44.1235 4.57048 43.6214C4.06839 43.1193 3.3874 42.8372 2.67733 42.8372C1.96725 42.8372 1.28627 43.1193 0.784171 43.6214C0.282075 44.1235 0 44.8045 0 45.5145V45.7145C0 52.2757 0 57.4733 0.546174 61.5392C1.1102 65.723 2.29536 69.1107 4.96555 71.7845C7.6393 74.4546 11.027 75.6398 15.2108 76.2038C19.2803 76.75 24.4743 76.75 31.0356 76.75H31.2355C31.9455 76.75 32.6265 76.4679 33.1286 75.9658C33.6307 75.4637 33.9128 74.7828 33.9128 74.0727C33.9128 73.3626 33.6307 72.6816 33.1286 72.1795C32.6265 71.6774 31.9455 71.3954 31.2355 71.3954C24.4279 71.3954 19.5945 71.3882 15.9212 70.8956C12.3335 70.4137 10.2631 69.507 8.75307 67.9969C7.24306 66.4869 6.33634 64.4165 5.85442 60.8253C5.36179 57.1591 5.35465 52.3221 5.35465 45.5145Z" fill="url(#paint1_linear_702_1858)"/>
<defs>
<linearGradient id="paint0_linear_702_1858" x1="1" y1="20" x2="75.5" y2="21" gradientUnits="userSpaceOnUse">
<stop stop-color="#42B462"/>
<stop offset="1" stop-color="#1976D2"/>
</linearGradient>
<linearGradient id="paint1_linear_702_1858" x1="2.6541e-07" y1="60" x2="76" y2="59" gradientUnits="userSpaceOnUse">
<stop stop-color="#1976D2"/>
<stop offset="1" stop-color="#FFC738"/>
</linearGradient>
</defs>
</svg>
