<svg width="49" height="50" viewBox="0 0 49 50" fill="none" xmlns="http://www.w3.org/2000/svg">
<path d="M11.5 25.5H3C2.44772 25.5 2 25.9477 2 26.5V46.5C2 47.0522 2.44772 47.5 3 47.5H11.5M11.5 25.5V47.5M11.5 25.5C11.5 25.5 17 6.49995 18 4.5C19 2.50005 20.8508 2 22.5 2C24.5 2 26.5 3.49996 26.5 7.49996C26.5 10.1629 26.2692 13.3567 26.0956 15.4102C26.0461 15.9962 26.5002 16.5 27.0882 16.5C30.3574 16.5 40.0191 16.5 42.5 16.5C45.4584 16.5 47.9306 19.9036 45.1216 25.2723C45.0441 25.4206 44.9973 25.5874 45.0124 25.754C45.1441 27.2056 46.234 29.4297 43.8518 31.6877C43.6364 31.8919 43.4937 32.1734 43.5521 32.4643C43.8327 33.8632 45.0543 35.7496 42.3379 39.0993C42.1315 39.3537 42.049 39.6879 42.124 40.0068C42.6136 42.0885 43.0939 45.5632 38.6812 47.4255C38.564 47.475 38.4427 47.5 38.3155 47.5C35.353 47.5 19.3189 47.5 11.5 47.5" stroke="white" stroke-width="3.5"/>
</svg>
