<svg width="26" height="26" viewBox="0 0 26 26" fill="none" xmlns="http://www.w3.org/2000/svg">
<path d="M13 13H25M25 13L19.8571 17M25 13L19.8571 9M25 5V3.66667C25 2.95942 24.6388 2.28115 23.9958 1.78105C23.3528 1.28095 22.4807 1 21.5714 1H4.42857C3.51926 1 2.64719 1.28095 2.00421 1.78105C1.36122 2.28115 1 2.95942 1 3.66667V22.3333C1 23.0406 1.36122 23.7189 2.00421 24.219C2.64719 24.719 3.51926 25 4.42857 25H21.5714C22.4807 25 23.3528 24.719 23.9958 24.219C24.6388 23.7189 25 23.0406 25 22.3333V21" stroke="black" stroke-width="2" stroke-linecap="round" stroke-linejoin="round"/>
</svg>
