<svg width="500" height="350" viewBox="0 0 558 350" fill="none" xmlns="http://www.w3.org/2000/svg">
<g clip-path="url(#clip0_98_1704)">
<path d="M499.505 114.056C501.197 114.049 502.844 113.504 504.206 112.5L515.535 104.274C516.475 103.588 517.608 103.218 518.772 103.218C519.936 103.218 521.07 103.588 522.01 104.274L533.339 112.5C534.705 113.492 536.35 114.026 538.039 114.027C539.728 114.027 541.373 113.492 542.74 112.5C544.106 111.508 545.123 110.109 545.645 108.504C546.167 106.899 546.167 105.17 545.645 103.564L541.318 90.2537C540.956 89.148 540.955 87.956 541.315 86.8495C541.674 85.743 542.376 84.7792 543.319 84.097L554.648 75.8706C556.014 74.8784 557.031 73.4794 557.553 71.874C558.074 70.2686 558.074 68.5394 557.552 66.9341C557.03 65.3288 556.013 63.9298 554.647 62.9377C553.281 61.9455 551.636 61.4111 549.947 61.4111H535.944C534.78 61.4132 533.646 61.0459 532.704 60.3623C531.763 59.6786 531.063 58.7139 530.705 57.607L526.378 44.2964C525.856 42.6909 524.839 41.2916 523.473 40.2993C522.107 39.3069 520.461 38.7725 518.772 38.7725C517.083 38.7725 515.437 39.3069 514.071 40.2993C512.705 41.2916 511.688 42.6909 511.166 44.2964L506.839 57.607C506.481 58.7139 505.781 59.6787 504.84 60.3623C503.898 61.046 502.764 61.4132 501.6 61.4111H487.597C485.908 61.4111 484.263 61.9455 482.897 62.9377C481.53 63.9298 480.513 65.3288 479.991 66.9341C479.47 68.5394 479.469 70.2686 479.991 71.874C480.513 73.4794 481.53 74.8784 482.896 75.8706L494.225 84.097C495.168 84.7791 495.87 85.7428 496.229 86.8493C496.589 87.9558 496.588 89.1479 496.226 90.2537L491.899 103.564C491.358 105.168 491.349 106.903 491.872 108.513C492.395 110.122 493.424 111.521 494.804 112.5C496.166 113.504 497.813 114.049 499.505 114.056Z" fill="#278CEA"/>
<path d="M384.706 114.056C386.398 114.049 388.044 113.504 389.406 112.5L400.735 104.274C401.675 103.589 402.809 103.221 403.973 103.221C405.136 103.221 406.27 103.589 407.211 104.274L418.539 112.5C419.905 113.492 421.551 114.027 423.24 114.027C424.928 114.027 426.574 113.492 427.94 112.5C429.306 111.508 430.323 110.109 430.845 108.504C431.367 106.899 431.367 105.17 430.846 103.564L426.519 90.2537C426.157 89.148 426.156 87.956 426.515 86.8495C426.875 85.743 427.577 84.7792 428.52 84.097L439.848 75.8706C441.215 74.8784 442.231 73.4794 442.753 71.874C443.275 70.2686 443.275 68.5394 442.753 66.9341C442.231 65.3288 441.214 63.9298 439.848 62.9377C438.482 61.9455 436.836 61.4111 435.147 61.4111H421.145C419.981 61.4132 418.847 61.046 417.905 60.3623C416.963 59.6786 416.263 58.7139 415.906 57.607L411.578 44.2964C411.057 42.6909 410.04 41.2916 408.673 40.2993C407.307 39.3069 405.662 38.7725 403.973 38.7725C402.284 38.7725 400.638 39.3069 399.272 40.2993C397.905 41.2916 396.888 42.6909 396.367 44.2964L392.039 57.607C391.682 58.7139 390.982 59.6786 390.04 60.3623C389.099 61.0459 387.964 61.4132 386.801 61.4111H372.798C371.109 61.4111 369.464 61.9455 368.097 62.9377C366.731 63.9298 365.714 65.3288 365.192 66.9341C364.67 68.5394 364.67 70.2686 365.192 71.874C365.714 73.4794 366.731 74.8784 368.097 75.8706L379.426 84.097C380.368 84.7792 381.07 85.743 381.43 86.8495C381.789 87.956 381.788 89.148 381.426 90.2537L377.1 103.564C376.559 105.168 376.549 106.903 377.072 108.513C377.596 110.122 378.624 111.52 380.005 112.5C381.367 113.504 383.013 114.049 384.706 114.056Z" fill="#278CEA"/>
<path d="M309.439 114.519C311.298 114.511 313.106 113.913 314.602 112.811C316.119 111.735 317.249 110.199 317.824 108.431C318.399 106.662 318.388 104.756 317.794 102.994L313.466 89.6838C313.156 88.7362 313.156 87.7148 313.464 86.7667C313.772 85.8186 314.373 84.9928 315.181 84.4082L326.51 76.1811C328.011 75.0913 329.128 73.5545 329.702 71.7911C330.275 70.0277 330.275 68.1281 329.702 66.3647C329.128 64.6013 328.011 63.0645 326.51 61.9747C325.009 60.8849 323.202 60.298 321.347 60.298H307.344C306.346 60.2999 305.374 59.9851 304.567 59.399C303.76 58.8129 303.16 57.9859 302.854 57.0371L298.526 43.7269C297.953 41.9635 296.836 40.4268 295.335 39.337C293.834 38.2471 292.027 37.6602 290.172 37.6602C288.317 37.6602 286.509 38.2471 285.008 39.337C283.508 40.4268 282.39 41.9635 281.817 43.7269L277.49 57.0371C277.184 57.9859 276.584 58.8129 275.777 59.399C274.97 59.985 273.998 60.2998 273 60.298H258.997C257.142 60.2981 255.335 60.8851 253.834 61.9749C252.333 63.0648 251.216 64.6015 250.643 66.3648C250.07 68.1282 250.069 70.0277 250.643 71.791C251.216 73.5544 252.333 75.0912 253.833 76.1811L265.162 84.4082C265.97 84.9925 266.572 85.8183 266.88 86.7665C267.189 87.7146 267.188 88.7361 266.878 89.6838L262.55 102.994C261.977 104.757 261.977 106.657 262.551 108.42C263.124 110.184 264.241 111.721 265.742 112.81C267.243 113.9 269.05 114.487 270.905 114.487C272.76 114.487 274.568 113.9 276.069 112.81L287.397 104.584C288.203 103.997 289.175 103.68 290.172 103.68C291.17 103.68 292.142 103.997 292.947 104.584L304.276 112.81C305.772 113.913 307.58 114.511 309.439 114.519ZM290.172 99.6171C288.316 99.6175 286.509 100.206 285.009 101.299L273.681 109.525C272.874 110.111 271.902 110.426 270.905 110.427C269.908 110.427 268.937 110.111 268.13 109.526C267.323 108.94 266.723 108.114 266.415 107.166C266.107 106.218 266.107 105.197 266.415 104.249L270.742 90.9389C271.319 89.1758 271.32 87.2751 270.747 85.5108C270.173 83.7466 269.054 82.21 267.55 81.1226L256.222 72.8955C255.415 72.3097 254.815 71.4838 254.507 70.5361C254.199 69.5883 254.199 68.5675 254.507 67.6197C254.815 66.672 255.415 65.8461 256.222 65.2603C257.029 64.6746 258 64.3591 258.997 64.3591H273C274.856 64.3625 276.665 63.7768 278.166 62.6865C279.668 61.5962 280.784 60.0575 281.354 58.2923L285.682 44.9821C285.99 44.0342 286.59 43.2083 287.397 42.6225C288.204 42.0367 289.175 41.7212 290.172 41.7212C291.169 41.7212 292.141 42.0367 292.947 42.6225C293.754 43.2083 294.354 44.0342 294.663 44.9821L298.99 58.2923C299.56 60.0576 300.676 61.5963 302.178 62.6866C303.679 63.7769 305.488 64.3626 307.344 64.3591H321.347C322.344 64.359 323.315 64.6744 324.122 65.2601C324.929 65.8458 325.529 66.6717 325.837 67.6195C326.145 68.5672 326.145 69.5882 325.837 70.5359C325.529 71.4837 324.929 72.3097 324.122 72.8955L312.793 81.1226C311.29 82.2102 310.171 83.7469 309.597 85.511C309.024 87.2752 309.025 89.1758 309.602 90.9389L313.93 104.249C314.238 105.197 314.238 106.218 313.93 107.166C313.622 108.113 313.021 108.939 312.215 109.525C311.408 110.111 310.436 110.426 309.439 110.426C308.442 110.426 307.471 110.111 306.664 109.525L295.335 101.299C293.835 100.206 292.028 99.6175 290.172 99.6171Z" fill="#3F3D56"/>
<path d="M96.2976 134.932L124.129 158.845L167.747 196.309L173.643 201.375C174.183 201.834 174.626 202.396 174.946 203.028C175.267 203.66 175.458 204.349 175.51 205.055C175.586 206.081 175.369 207.107 174.884 208.014C174.699 208.356 174.477 208.676 174.223 208.97L171.06 212.651L166.246 218.249C166.158 218.348 166.074 218.44 165.979 218.534C165.017 219.496 163.727 220.06 162.367 220.112C161.008 220.165 159.678 219.702 158.645 218.816L109.184 176.339L81.2946 152.38C80.2132 151.446 79.5463 150.123 79.4398 148.698C79.3334 147.274 79.7961 145.866 80.7267 144.783L82.4096 142.827L88.6981 135.511C89.1585 134.973 89.7205 134.532 90.3519 134.212C90.9833 133.891 91.6717 133.699 92.3776 133.645C93.0836 133.591 93.7931 133.677 94.4658 133.898C95.1384 134.119 95.7609 134.47 96.2976 134.932V134.932Z" fill="#278CEA"/>
<path d="M75.0877 114.813C50.5823 114.813 30.7168 94.9572 30.7168 70.4644C30.7168 45.9716 50.5823 26.1162 75.0877 26.1162C99.593 26.1162 119.458 45.9716 119.458 70.4644C119.458 94.9572 99.593 114.813 75.0877 114.813Z" fill="#278CEA"/>
<path d="M71.8271 242.683V344.614C71.8258 346.042 71.2576 347.411 70.2473 348.421C69.2369 349.431 67.867 349.999 66.4382 350H54.2014C52.7726 349.999 51.4027 349.431 50.3924 348.421C49.382 347.411 48.8138 346.042 48.8125 344.614V242.683C48.8138 241.255 49.382 239.886 50.3924 238.876C51.4027 237.866 52.7726 237.298 54.2014 237.297H66.4382C67.867 237.298 69.2369 237.866 70.2473 238.876C71.2576 239.886 71.8258 241.255 71.8271 242.683Z" fill="#2F2E41"/>
<path d="M97.6855 242.683V344.614C97.6856 345.321 97.5462 346.022 97.2754 346.675C97.0046 347.329 96.6077 347.922 96.1073 348.423C95.6069 348.923 95.0128 349.32 94.3589 349.59C93.7051 349.861 93.0043 350 92.2966 350H80.0599C78.631 349.999 77.2611 349.431 76.2508 348.421C75.2405 347.411 74.6723 346.042 74.6709 344.614V242.683C74.6723 241.255 75.2405 239.886 76.2508 238.876C77.2611 237.866 78.631 237.298 80.0599 237.297H92.2966C93.0043 237.297 93.7051 237.436 94.3589 237.707C95.0128 237.977 95.6069 238.374 96.1073 238.874C96.6077 239.374 97.0046 239.968 97.2754 240.622C97.5462 241.275 97.6856 241.975 97.6855 242.683Z" fill="#2F2E41"/>
<path d="M92.7178 256.646C97.3223 256.642 101.867 255.602 106.014 253.602C110.161 251.602 113.804 248.695 116.674 245.096C119.543 241.497 121.565 237.298 122.588 232.811C123.612 228.324 123.612 223.664 122.588 219.177L108.746 158.529C108.737 152.256 106.998 146.107 103.72 140.757C100.442 135.407 95.753 131.064 90.167 128.204C84.5809 125.344 78.3142 124.079 72.0554 124.546C65.7966 125.013 59.7878 127.196 54.689 130.854C50.2816 134.016 46.6894 138.181 44.2089 143.003C41.7283 147.826 40.4303 153.169 40.4219 158.592C40.4029 159.14 38.473 215.542 37.6636 241.606C37.6085 243.389 37.9064 245.166 38.5403 246.833C39.1743 248.501 40.1317 250.027 41.3575 251.324C42.5834 252.621 44.0536 253.663 45.6836 254.39C47.3137 255.117 49.0714 255.515 50.8558 255.561L91.7303 256.631C92.0599 256.641 92.3899 256.646 92.7178 256.646Z" fill="#2F2E41"/>
<path d="M112.558 90.0686L112.512 88.4113C115.596 88.3255 118.316 88.1321 120.359 86.6399C120.939 86.1928 121.415 85.6263 121.756 84.9788C122.096 84.3313 122.293 83.618 122.334 82.8876C122.37 82.4412 122.302 81.9926 122.136 81.5766C121.971 81.1607 121.711 80.7885 121.378 80.489C120.021 79.344 117.839 79.7146 116.248 80.4437L114.876 81.0725L117.507 61.856L119.149 62.0809L116.912 78.4271C119.073 77.7919 121.076 78.0654 122.448 79.2234C122.975 79.6831 123.388 80.2582 123.656 80.904C123.923 81.5497 124.038 82.2485 123.991 82.9458C123.942 83.9273 123.68 84.8863 123.221 85.7556C122.763 86.625 122.12 87.3836 121.337 87.9784C118.712 89.8962 115.3 89.9917 112.558 90.0686Z" fill="#2F2E41"/>
<path d="M99.0855 63.4905H108.016V65.1478H99.0855V63.4905Z" fill="#2F2E41"/>
<path d="M63.4951 143.213L61.9698 179.863L59.5903 237.297L59.2668 245.061C59.2408 245.769 59.0742 246.464 58.7768 247.107C58.4793 247.75 58.0569 248.328 57.5342 248.806C56.7764 249.502 55.836 249.968 54.8231 250.149C54.4401 250.216 54.051 250.241 53.6625 250.223L48.8124 250.024L41.4338 249.718C41.3011 249.71 41.1768 249.701 41.044 249.685C39.6924 249.527 38.4504 248.865 37.5664 247.831C36.6825 246.797 36.2219 245.467 36.2769 244.108L38.9713 178.985L40.4967 142.26C40.5593 140.833 41.1852 139.489 42.2373 138.523C43.2894 137.557 44.6819 137.047 46.1095 137.106L48.6881 137.213L58.33 137.611C59.0375 137.639 59.7325 137.806 60.3752 138.103C61.0179 138.4 61.5956 138.82 62.0754 139.341C62.5552 139.861 62.9276 140.471 63.1712 141.135C63.4148 141.8 63.5249 142.506 63.4951 143.213Z" fill="#278CEA"/>
<path d="M67.2175 146.312V174.486C67.2167 175.889 66.6677 177.236 65.6875 178.241C64.7073 179.245 63.3733 179.828 61.9699 179.864C61.9231 179.871 61.8758 179.873 61.8286 179.872H41.931C41.6111 179.871 41.292 179.84 40.9777 179.781C40.2615 179.656 39.5787 179.385 38.9714 178.985C38.2267 178.493 37.6152 177.825 37.1913 177.04C36.7675 176.255 36.5444 175.378 36.5421 174.486V146.312C36.547 142.248 38.1646 138.351 41.0399 135.477C43.9152 132.604 47.8135 130.987 51.8798 130.982C52.933 130.979 53.9835 131.088 55.0139 131.305C58.4611 132.029 61.5548 133.915 63.7765 136.647C65.9982 139.379 67.2131 142.791 67.2175 146.312Z" fill="#2F2E41"/>
<path d="M125.352 158.07C125.146 158.74 124.811 159.362 124.365 159.902L111.763 175.289C111.538 175.574 111.279 175.83 110.992 176.052C110.03 176.836 108.825 177.264 107.583 177.262C106.341 177.26 105.138 176.83 104.177 176.044L82.3646 158.203C80.806 156.927 79.514 155.358 78.5625 153.583C77.6109 151.809 77.0183 149.865 76.8186 147.861C76.6188 145.858 76.8158 143.835 77.3982 141.908C77.9807 139.98 78.9373 138.187 80.2133 136.629C81.4894 135.071 83.0598 133.78 84.8352 132.829C86.6105 131.878 88.5559 131.285 90.5602 131.086C92.5645 130.886 94.5886 131.083 96.5168 131.665C98.4451 132.247 100.24 133.203 101.798 134.479L123.611 152.32C124.436 152.999 125.042 153.908 125.352 154.931C125.662 155.955 125.662 157.047 125.352 158.07Z" fill="#2F2E41"/>
<path d="M81.8819 44.388C89.2738 47.4639 97.2342 50.8669 105.426 49.9239C112.137 49.1515 118.586 45.2298 120.132 38.2996C121.609 31.6774 118.555 24.7693 113.689 20.3334C108.184 15.3157 100.584 12.888 93.3306 11.8641C88.9484 11.2455 84.0796 11.2055 80.0391 13.2557C76.8048 14.8967 73.8976 17.864 73.3975 21.5939L70.2898 20.7526C72.4861 17.0313 71.4351 12.521 69.0049 9.17825C66.0829 5.15901 61.1775 3.48519 56.3602 3.34537C46.5626 3.06101 36.5376 7.60529 28.6481 13.1055C20.8779 18.5422 14.4819 25.7134 9.96719 34.0505C4.90414 43.4155 2.11598 54.614 3.81889 65.2407C5.55209 76.0563 12.5522 86.3196 23.3878 89.5752C25.4382 90.1912 24.5647 93.4097 22.5012 92.7897C12.1573 89.6819 4.51665 80.7295 1.58195 70.5202C-1.79044 58.7884 0.529419 45.9398 5.70238 35.0921C10.2888 25.6096 17.1346 17.3978 25.6385 11.1777C34.1387 4.91491 45.1561 -0.122838 55.8941 0.00228121C62.0638 0.0741558 68.0394 2.27201 71.7739 7.34511C74.9624 11.6764 75.9855 17.6647 73.1698 22.4352C72.3969 23.7448 69.8313 23.3153 70.0621 21.5939C71.2325 12.8656 79.6839 8.37848 87.8219 8.18477C92.4151 8.16719 96.9847 8.84255 101.376 10.188C105.44 11.3005 109.296 13.0623 112.797 15.4054C119.369 19.9526 123.992 27.2141 123.807 35.3913C123.622 43.5492 118.124 49.8155 110.503 52.2282C100.445 55.4122 90.2466 51.4522 80.9952 47.6025C80.5769 47.4724 80.2238 47.1881 80.0075 46.8073C79.7912 46.4266 79.7279 45.9778 79.8304 45.5521C79.9501 45.1271 80.2326 44.7665 80.6168 44.5485C81.0009 44.3305 81.4555 44.2728 81.8819 44.3879L81.8819 44.388Z" fill="#2F2E41"/>
<path d="M217.275 207.797C219.133 207.79 220.941 207.192 222.437 206.09C223.954 205.013 225.084 203.477 225.659 201.709C226.234 199.941 226.224 198.034 225.629 196.272L221.302 182.962C220.992 182.015 220.991 180.993 221.299 180.045C221.607 179.097 222.209 178.271 223.017 177.687L234.346 169.459C235.847 168.37 236.964 166.833 237.537 165.069C238.11 163.306 238.11 161.406 237.537 159.643C236.964 157.88 235.847 156.343 234.346 155.253C232.845 154.163 231.037 153.576 229.182 153.576H215.179C214.182 153.578 213.21 153.263 212.403 152.677C211.596 152.091 210.996 151.264 210.69 150.315L206.362 137.005C205.788 135.242 204.671 133.705 203.171 132.615C201.67 131.525 199.862 130.938 198.007 130.938C196.152 130.938 194.345 131.525 192.844 132.615C191.343 133.705 190.226 135.242 189.653 137.005L185.326 150.315C185.019 151.264 184.419 152.091 183.612 152.677C182.805 153.263 181.833 153.578 180.836 153.576H166.833C164.977 153.576 163.17 154.163 161.669 155.253C160.169 156.343 159.051 157.88 158.478 159.643C157.905 161.407 157.905 163.306 158.478 165.069C159.051 166.833 160.168 168.37 161.669 169.459L172.998 177.687C173.806 178.271 174.407 179.097 174.716 180.045C175.024 180.993 175.023 182.014 174.713 182.962L170.386 196.272C169.813 198.036 169.813 199.935 170.386 201.699C170.959 203.462 172.076 204.999 173.577 206.089C175.078 207.179 176.886 207.765 178.741 207.766C180.596 207.766 182.403 207.179 183.904 206.089L195.232 197.863C196.038 197.275 197.01 196.958 198.008 196.958C199.005 196.958 199.977 197.275 200.783 197.863L212.112 206.089C213.608 207.192 215.416 207.79 217.275 207.797ZM198.007 192.895C196.152 192.896 194.344 193.485 192.845 194.577L181.516 202.803C180.709 203.389 179.738 203.705 178.741 203.705C177.744 203.705 176.772 203.39 175.965 202.804C175.159 202.218 174.558 201.392 174.25 200.444C173.942 199.496 173.942 198.475 174.25 197.528L178.577 184.217C179.154 182.454 179.156 180.553 178.582 178.789C178.009 177.025 176.889 175.488 175.386 174.401L164.057 166.174C163.251 165.588 162.651 164.762 162.342 163.814C162.034 162.867 162.034 161.846 162.342 160.898C162.651 159.95 163.251 159.124 164.057 158.539C164.864 157.953 165.835 157.637 166.833 157.637H180.836C182.691 157.641 184.5 157.055 186.002 155.965C187.503 154.875 188.62 153.336 189.19 151.571L193.517 138.26C193.825 137.313 194.426 136.487 195.232 135.901C196.039 135.315 197.011 134.999 198.008 134.999C199.005 134.999 199.976 135.315 200.783 135.901C201.589 136.487 202.19 137.313 202.498 138.26L206.825 151.571C207.395 153.336 208.512 154.875 210.013 155.965C211.514 157.055 213.323 157.641 215.179 157.637H229.182C230.179 157.637 231.151 157.953 231.957 158.538C232.764 159.124 233.365 159.95 233.673 160.898C233.981 161.846 233.981 162.866 233.673 163.814C233.365 164.762 232.764 165.588 231.958 166.174L220.629 174.401C219.125 175.489 218.006 177.025 217.433 178.789C216.859 180.554 216.861 182.454 217.437 184.217L221.765 197.528C222.073 198.475 222.073 199.496 221.765 200.444C221.457 201.392 220.857 202.218 220.05 202.803C219.243 203.389 218.272 203.705 217.275 203.705C216.278 203.704 215.306 203.389 214.5 202.803L203.17 194.577C201.671 193.485 199.863 192.896 198.007 192.895Z" fill="#3F3D56"/>
</g>
<defs>
<clipPath id="clip0_98_1704">
<rect width="557.96" height="350" fill="white" transform="matrix(-1 0 0 1 557.96 0)"/>
</clipPath>
</defs>
</svg>
